<svg viewBox="-17 0 512 512" xmlns="http://www.w3.org/2000/svg"><path d="m133.925781 331c-24.8125 0-45 20.1875-45 45s20.1875 45 45 45 45-20.1875 45-45-20.1875-45-45-45zm0 60c-8.273437 0-15-6.730469-15-15s6.726563-15 15-15c8.269531 0 15 6.730469 15 15s-6.730469 15-15 15zm0 0"/><path d="m470.347656 277.027344-21.820312-12.597656c.511718-5.574219.550781-10.902344 0-16.859376l21.820312-12.597656c7.171875-4.140625 9.632813-13.320312 5.492188-20.492187l-30-51.960938c-4.140625-7.167969-13.316406-9.632812-20.492188-5.492187l-22.164062 12.796875c-4.542969-3.140625-9.304688-5.90625-14.257813-8.277344v-25.546875c0-8.285156-6.714843-15-15-15h-60c-8.285156 0-15 6.714844-15 15v25.546875c-4.953125 2.371094-9.714843 5.136719-14.257812 8.277344l-46.144531-25.394531c.515624-5.574219.550781-10.902344 0-16.859376l21.824218-12.597656c7.171875-4.140625 9.632813-13.320312 5.492188-20.492187l-30-51.960938c-4.140625-7.167969-13.320313-9.632812-20.492188-5.492187l-22.164062 12.796875c-4.542969-3.140625-9.304688-5.90625-14.257813-8.277344v-26.546875c0-8.285156-6.71875-15-15-15h-60c-8.285156 0-15 6.714844-15 15v26.546875c-4.953125 2.371094-9.71875 5.136719-14.261719 8.277344l-22.164062-12.796875c-7.167969-4.136719-16.347656-1.683594-20.488281 5.492187l-30 51.960938c-4.140625 7.167969-1.683594 16.347656 5.488281 20.492187l21.824219 12.597656c-.515625 5.585938-.550781 10.914063 0 16.859376l-21.824219 12.597656c-7.167969 4.140625-9.628906 13.316406-5.488281 20.492187l30 51.960938c4.136719 7.167969 13.316406 9.632812 20.488281 5.492187l22.167969-12.800781c4.542969 3.144531 9.304687 5.90625 14.257812 8.28125v51.09375c-4.953125 2.371094-9.714843 5.136719-14.257812 8.277344l-22.167969-12.796875c-7.167969-4.136719-16.347656-1.683594-20.488281 5.492187l-30 51.960938c-4.140625 7.167969-1.683594 16.347656 5.488281 20.492187l21.824219 12.597656c-.515625 5.585938-.550781 10.914063 0 16.859376l-21.824219 12.597656c-7.167969 4.140625-9.628906 13.316406-5.488281 20.492187l30 51.960938c4.136719 7.167969 13.316406 9.632812 20.488281 5.492187l22.167969-12.800781c4.542969 3.144531 9.304687 5.90625 14.257812 8.28125v26.546875c0 8.285156 6.714844 15 15 15h60c8.285157 0 15-6.714844 15-15v-26.546875c4.953125-2.371094 9.714844-5.136719 14.257813-8.277344l22.164062 12.796875c3.445313 1.988282 7.542969 2.523438 11.382813 1.496094 3.84375-1.027344 7.121093-3.542969 9.109375-6.988281l30-51.960938c4.136718-7.167969 1.683594-16.347656-5.492188-20.492187l-21.820312-12.597656c.511718-5.574219.550781-10.902344 0-16.859376l46.140625-25.394531c4.542969 3.140625 9.304687 5.90625 14.257812 8.277344v25.546875c0 8.285156 6.714844 15 15 15h60c8.285157 0 15-6.714844 15-15v-25.546875c4.953125-2.371094 9.714844-5.136719 14.257813-8.277344l22.167968 12.796875c7.164063 4.136719 16.347657 1.683594 20.488282-5.492187l30-51.960938c4.140625-7.167969 1.683594-16.347656-5.492188-20.492187zm-384.769531-84.265625c-4.832031-4.121094-11.734375-4.753907-17.234375-1.578125l-17.851562 10.304687-15-25.976562 17.585937-10.15625c5.503906-3.175781 8.40625-9.472657 7.25-15.71875-1.867187-10.082031-1.871094-17.175781 0-27.273438 1.15625-6.246093-1.746094-12.542969-7.25-15.71875l-17.585937-10.15625 15-25.976562 17.851562 10.304687c5.5 3.175782 12.402344 2.542969 17.234375-1.578125 7.003906-5.976562 14.871094-10.546875 23.382813-13.582031 5.976562-2.128906 9.964843-7.785156 9.964843-14.128906v-21.527344h30v21.527344c0 6.34375 3.988281 12 9.960938 14.128906 8.515625 3.035156 16.382812 7.605469 23.386719 13.582031 4.832031 4.121094 11.734374 4.753907 17.234374 1.578125l17.851563-10.304687 15 25.976562-17.585937 10.15625c-5.503907 3.175781-8.40625 9.472657-7.25 15.71875 1.867187 10.082031 1.867187 17.175781 0 27.273438-1.15625 6.246093 1.746093 12.542969 7.25 15.71875l19.199218 11.085937-15 25.980469-19.464844-11.238281c-5.5-3.175782-12.40625-2.542969-17.234374 1.578125-7.007813 5.976562-14.875 10.546875-23.386719 13.582031-5.972657 2.128906-9.960938 7.785156-9.960938 14.128906v20.527344h-30v-20.53125c0-6.339844-3.988281-12-9.964843-14.128906-8.515626-3.035156-16.378907-7.601563-23.382813-13.578125zm121.945313 169.601562c1.867187 10.082031 1.867187 17.175781 0 27.273438-1.15625 6.246093 1.746093 12.542969 7.25 15.71875l17.585937 10.15625-15 25.976562-17.851563-10.304687c-5.5-3.175782-12.40625-2.542969-17.234374 1.578125-7.007813 5.976562-14.875 10.546875-23.386719 13.582031-5.972657 2.128906-9.960938 7.785156-9.960938 14.128906v21.527344h-30v-21.53125c0-6.339844-3.988281-12-9.964843-14.128906-8.515626-3.035156-16.378907-7.601563-23.382813-13.578125-4.832031-4.121094-11.734375-4.753907-17.234375-1.578125l-17.851562 10.304687-15-25.976562 17.585937-10.15625c5.503906-3.175781 8.40625-9.472657 7.25-15.71875-1.867187-10.082031-1.871094-17.175781 0-27.273438 1.15625-6.246093-1.746094-12.542969-7.25-15.71875l-17.585937-10.15625 15-25.976562 17.851562 10.304687c5.5 3.175782 12.402344 2.542969 17.234375-1.578125 7.003906-5.976562 14.871094-10.546875 23.382813-13.582031 5.976562-2.128906 9.964843-7.785156 9.964843-14.128906v-20.527344h30v20.527344c0 6.34375 3.988281 12 9.960938 14.128906 8.515625 3.035156 16.382812 7.605469 23.386719 13.582031 4.832031 4.121094 11.734374 4.753907 17.234374 1.578125l17.851563-10.304687 15 25.976562-17.585937 10.15625c-5.503907 3.175781-8.410157 9.472657-7.25 15.71875zm31.800781-97.933593-46.140625 25.394531c-4.542969-3.140625-9.304688-5.90625-14.257813-8.277344 0-6.226563 0-44.871094 0-51.09375 4.953125-2.371094 9.714844-5.136719 14.257813-8.28125l46.140625 25.398437c-.515625 5.585938-.546875 10.914063 0 16.859376zm178.199219-22.066407c1.867187 10.082031 1.867187 17.175781 0 27.273438-1.15625 6.246093 1.746093 12.542969 7.25 15.71875l17.585937 10.15625-15 25.976562-17.851563-10.304687c-5.5-3.175782-12.40625-2.542969-17.234374 1.578125-7.007813 5.976562-14.875 10.546875-23.386719 13.582031-5.972657 2.128906-9.960938 7.785156-9.960938 14.128906v20.527344h-30v-20.53125c0-6.339844-3.988281-12-9.964843-14.128906-8.515626-3.035156-16.378907-7.601563-23.382813-13.578125-4.832031-4.121094-11.738281-4.753907-17.234375-1.578125l-19.464844 11.238281-15-25.980469 19.199219-11.085937c5.503906-3.175781 8.40625-9.472657 7.25-15.71875-1.867187-10.082031-1.871094-17.175781 0-27.273438 1.15625-6.246093-1.746094-12.542969-7.25-15.71875l-17.585937-10.15625 15-25.976562 17.851562 10.304687c5.5 3.175782 12.402344 2.542969 17.234375-1.578125 7.003906-5.976562 14.871094-10.546875 23.382813-13.582031 5.976562-2.128906 9.964843-7.785156 9.964843-14.128906v-20.527344h30v20.527344c0 6.34375 3.988281 12 9.960938 14.128906 8.515625 3.035156 16.382812 7.605469 23.386719 13.582031 4.832031 4.121094 11.734374 4.753907 17.234374 1.578125l17.851563-10.304687 15 25.976562-17.585937 10.15625c-5.503907 3.175781-8.410157 9.472657-7.25 15.71875zm0 0"/><path d="m343.925781 211c-24.8125 0-45 20.1875-45 45s20.1875 45 45 45 45-20.1875 45-45-20.1875-45-45-45zm0 60c-8.273437 0-15-6.730469-15-15s6.726563-15 15-15c8.269531 0 15 6.730469 15 15s-6.730469 15-15 15zm0 0"/><path d="m178.925781 136c0-24.8125-20.1875-45-45-45s-45 20.1875-45 45 20.1875 45 45 45 45-20.1875 45-45zm-60 0c0-8.269531 6.726563-15 15-15 8.269531 0 15 6.730469 15 15s-6.730469 15-15 15c-8.273437 0-15-6.730469-15-15zm0 0"/></svg>