<svg xmlns="http://www.w3.org/2000/svg" width="196" height="168" viewBox="0 0 196 168">
  <g id="Group_583" data-name="Group 583" transform="translate(-1106 -1513)">
    <g id="Group_487" data-name="Group 487" transform="translate(1134 1513)">
      <g id="Ellipse_107" data-name="Ellipse 107" fill="none" stroke="#f28f55" stroke-linecap="round" stroke-width="6" stroke-dasharray="0 12">
        <circle cx="84" cy="84" r="84" stroke="none"/>
        <circle cx="84" cy="84" r="81" fill="none"/>
      </g>
    </g>
    <g id="Ellipse_186" data-name="Ellipse 186" transform="translate(1106 1513)" fill="#fff" stroke="#f28f55" stroke-width="1">
      <circle cx="34" cy="34" r="34" stroke="none"/>
      <circle cx="34" cy="34" r="33.5" fill="none"/>
    </g>
    <text id="_2" data-name="2" transform="translate(1139 1560)" fill="#f28f55" font-size="36" font-family="Arial-BoldMT, Arial" font-weight="700" letter-spacing="0.04em"><tspan x="-10.011" y="0">2</tspan></text>
    <g id="Group_496" data-name="Group 496" transform="translate(1169.808 1559.113)">
      <g id="Group_390" data-name="Group 390" transform="translate(71.669 8.001)">
        <path id="Path_1182" data-name="Path 1182" d="M642.044,794.912a1.167,1.167,0,0,1-1.16-1.193l.08-2.763a4.957,4.957,0,0,1-3.507-.781c-2.37-1.618-2.681-5.03-2.719-5.7a30.554,30.554,0,0,1,.644-8.215,1.16,1.16,0,0,1,2.267.491,28.268,28.268,0,0,0-.6,7.592c.077,1.319.569,3.135,1.712,3.916a3.4,3.4,0,0,0,3.041.136,1.159,1.159,0,0,1,1.518,1.136l-.122,4.253A1.159,1.159,0,0,1,642.044,794.912Z" transform="translate(-634.688 -775.347)" fill="#f28f55"/>
      </g>
      <g id="Group_391" data-name="Group 391" transform="translate(70.072 1.076)">
        <path id="Path_1183" data-name="Path 1183" d="M650.948,793.581a1.16,1.16,0,0,1-1.1-.8c-.425-1.307-1.8-5.695-1.581-7.312a18.462,18.462,0,0,1,1.693-5.725c.164-.382.34-.793.532-1.253a6.117,6.117,0,0,0-.254-5.454,8.886,8.886,0,0,0-6.2-4.216c-2.58-.452-5.06.629-7.053,1.5a20.538,20.538,0,0,1-1.954.782,4.779,4.779,0,0,0,1.116,1.456c.213.133.481.33.838.595,1.169.863,3.6,2.656,5.27,2.656a1.174,1.174,0,0,1,.781.285l1.393,1.21a1.16,1.16,0,0,1-1.522,1.751l-1.089-.947c-2.32-.216-4.825-2.066-6.211-3.089-.309-.228-.549-.41-.7-.5a.947.947,0,0,1-.09-.059c-.656-.477-2.461-2.393-2.153-4.021a1.888,1.888,0,0,1,1.461-1.486,15.125,15.125,0,0,0,1.932-.755c2.159-.944,5.113-2.241,8.387-1.659a11.1,11.1,0,0,1,7.832,5.385,8.475,8.475,0,0,1,.361,7.458c-.195.469-.375.89-.543,1.279a16.246,16.246,0,0,0-1.526,5.117c-.1.752.694,3.848,1.489,6.286a1.158,1.158,0,0,1-.743,1.461A1.143,1.143,0,0,1,650.948,793.581Z" transform="translate(-632.623 -766.391)" fill="#f28f55"/>
      </g>
      <g id="Group_392" data-name="Group 392" transform="translate(72.363 24.8)">
        <path id="Path_1184" data-name="Path 1184" d="M655.533,841.4a1.16,1.16,0,0,1-1.117-.845c-.219-.78-.426-1.482-.6-2.064a1.214,1.214,0,0,1-.045-.233,75.835,75.835,0,0,1,.52-10.459c.294-3.344.6-6.8.637-9.49.208-14.165-2.418-17.7-7.032-18.917-2.686-.089-9.245,2.834-10,7.384a1.16,1.16,0,0,1-2.288-.382c1.042-6.252,9.2-9.541,12.548-9.311a1.1,1.1,0,0,1,.207.032c6.681,1.7,9.09,7.451,8.888,21.228-.042,2.774-.349,6.273-.646,9.658a79.162,79.162,0,0,0-.531,9.933c.173.571.373,1.246.582,1.993a1.157,1.157,0,0,1-1.117,1.474Z" transform="translate(-635.585 -797.073)" fill="#f28f55"/>
      </g>
      <g id="Group_393" data-name="Group 393" transform="translate(54.568 31.279)">
        <path id="Path_1185" data-name="Path 1185" d="M624.057,821.7a1.153,1.153,0,0,1-.769-.293c-1.563-1.389-4.191-4.3-6.509-6.865-1.348-1.493-2.512-2.783-3.169-3.438a1.164,1.164,0,0,1-.319-.6l-.7-3.674a1.16,1.16,0,1,1,2.279-.433l.633,3.329c.713.738,1.781,1.921,3,3.266,2.166,2.4,4.86,5.382,6.328,6.687a1.16,1.16,0,0,1-.771,2.027Z" transform="translate(-612.571 -805.452)" fill="#f28f55"/>
      </g>
      <g id="Group_394" data-name="Group 394" transform="translate(43.837 28.805)">
        <path id="Path_1186" data-name="Path 1186" d="M621.005,829.158a6,6,0,0,1-4.244-1.679c-1.069-1.067-3.451-3.93-5.754-6.7-1.939-2.333-3.94-4.739-4.871-5.72-3.049-1.194-7.619-5.718-7.438-8.846a1.15,1.15,0,0,1,.131-.473l1.059-2.012a3.045,3.045,0,0,1,2.363-1.431,3.545,3.545,0,0,1,2.978.806,1.1,1.1,0,0,1,.1.123l1.49,2.055a1.16,1.16,0,1,1-1.879,1.361l-1.414-1.952a1.566,1.566,0,0,0-.816-.111,1.359,1.359,0,0,0-.784.251l-.91,1.73c.179,1.852,3.717,5.6,6.13,6.4a1.143,1.143,0,0,1,.454.28c.91.91,2.988,3.409,5.188,6.056,2.269,2.728,4.615,5.55,5.609,6.541a3.7,3.7,0,0,0,2.709,1,5.265,5.265,0,0,0,3.713-1.857c1.832-2.015,3.449-3.616,5.9-6.038,1.018-1.007,2.181-2.158,3.565-3.542a37.5,37.5,0,0,0,5.143-5.993,1.16,1.16,0,0,1,1.99,1.191,38.344,38.344,0,0,1-5.493,6.442c-1.387,1.388-2.553,2.542-3.573,3.551-2.422,2.4-4.022,3.979-5.813,5.948a7.549,7.549,0,0,1-5.373,2.617Z" transform="translate(-598.693 -802.254)" fill="#f28f55"/>
      </g>
      <g id="Group_395" data-name="Group 395" transform="translate(69.59 50.248)">
        <path id="Path_1187" data-name="Path 1187" d="M633.16,848.554a1.16,1.16,0,0,1-1.16-1.16v-2.8c0-4.455.869-13.192.906-13.561a1.144,1.144,0,0,1,1.269-1.038,1.159,1.159,0,0,1,1.038,1.27c-.008.089-.894,8.993-.894,13.33v2.8A1.16,1.16,0,0,1,633.16,848.554Z" transform="translate(-632 -829.986)" fill="#f28f55"/>
      </g>
      <g id="Group_396" data-name="Group 396" transform="translate(15.776 8)">
        <path id="Path_1188" data-name="Path 1188" d="M563.684,794.912a1.16,1.16,0,0,1-1.159-1.127l-.122-4.253a1.16,1.16,0,0,1,1.519-1.136,3.4,3.4,0,0,0,3.041-.136c1.142-.781,1.635-2.6,1.712-3.916a28.348,28.348,0,0,0-.6-7.592,1.16,1.16,0,0,1,2.267-.489,30.586,30.586,0,0,1,.643,8.215c-.038.668-.349,4.08-2.719,5.7a4.988,4.988,0,0,1-3.507.782l.08,2.762a1.159,1.159,0,0,1-1.127,1.192Z" transform="translate(-562.402 -775.347)" fill="#f28f55"/>
      </g>
      <g id="Group_397" data-name="Group 397" transform="translate(5.307 1.076)">
        <path id="Path_1189" data-name="Path 1189" d="M551.24,793.58a1.142,1.142,0,0,1-.359-.058,1.158,1.158,0,0,1-.743-1.461c.794-2.437,1.588-5.533,1.488-6.286a16.226,16.226,0,0,0-1.528-5.122c-.167-.388-.346-.807-.54-1.273a8.478,8.478,0,0,1,.36-7.458,11.1,11.1,0,0,1,7.832-5.386c3.279-.583,6.23.714,8.388,1.659a15.1,15.1,0,0,0,1.932.755,1.888,1.888,0,0,1,1.461,1.486c.308,1.628-1.5,3.544-2.153,4.021-.03.022-.06.041-.09.059-.153.091-.394.273-.7.5-1.386,1.023-3.89,2.872-6.209,3.089l-1.089.947a1.16,1.16,0,0,1-1.522-1.751l1.392-1.21a1.158,1.158,0,0,1,.761-.285c1.692,0,4.121-1.793,5.291-2.656.357-.265.625-.462.838-.595a4.767,4.767,0,0,0,1.115-1.456,20.51,20.51,0,0,1-1.953-.782c-1.991-.871-4.472-1.953-7.053-1.5a8.887,8.887,0,0,0-6.2,4.216,6.118,6.118,0,0,0-.254,5.454c.191.458.367.867.53,1.248a18.447,18.447,0,0,1,1.7,5.73c.217,1.618-1.156,6.006-1.582,7.312A1.161,1.161,0,0,1,551.24,793.58Z" transform="translate(-548.864 -766.391)" fill="#f28f55"/>
      </g>
      <g id="Group_398" data-name="Group 398" transform="translate(2.049 24.803)">
        <path id="Path_1190" data-name="Path 1190" d="M546.356,841.461a1.161,1.161,0,0,1-1.117-1.474c.216-.769.421-1.464.6-2.051a78.765,78.765,0,0,0-.53-9.928c-.3-3.387-.6-6.887-.645-9.662-.2-13.777,2.206-19.531,8.888-21.228a1.1,1.1,0,0,1,.207-.032c.079-.006.159-.009.24-.009,3.657,0,10.226,5.256,11.376,9.184a65.777,65.777,0,0,1,2.418,16.524,1.16,1.16,0,0,1-2.32,0,64.674,64.674,0,0,0-2.324-15.871c-.9-3.079-6.717-7.519-9.113-7.519-4.637,1.217-7.261,4.757-7.052,18.916.039,2.692.343,6.149.636,9.494a75.815,75.815,0,0,1,.521,10.456,1.21,1.21,0,0,1-.046.233c-.182.6-.394,1.318-.619,2.12A1.161,1.161,0,0,1,546.356,841.461Z" transform="translate(-544.65 -797.077)" fill="#f28f55"/>
      </g>
      <g id="Group_399" data-name="Group 399" transform="translate(18.518 46.637)">
        <path id="Path_1191" data-name="Path 1191" d="M567.107,832.29a1.16,1.16,0,0,1-.052-2.318c1.98-.09,6.947-.847,10.936-1.454,2.132-.325,4-.61,5.072-.74l2.588-2.189a1.16,1.16,0,1,1,1.5,1.771l-2.856,2.416a1.166,1.166,0,0,1-.629.268c-.912.1-2.957.406-5.324.767-4.045.615-9.078,1.382-11.181,1.478Z" transform="translate(-565.948 -825.315)" fill="#f28f55"/>
      </g>
      <g id="Group_400" data-name="Group 400" transform="translate(8.21 31.353)">
        <path id="Path_1192" data-name="Path 1192" d="M561.936,835.24a6.12,6.12,0,0,1-3.929-1.5,7.553,7.553,0,0,1-2.527-5.416,19,19,0,0,0-.946-4.526,40.68,40.68,0,0,1-1.649-7.971,36.936,36.936,0,0,1,.011-9.317,1.16,1.16,0,0,1,2.286.394,35.583,35.583,0,0,0,.011,8.681,38.128,38.128,0,0,0,1.567,7.559,21.064,21.064,0,0,1,1.037,5.048,5.265,5.265,0,0,0,1.714,3.781,3.727,3.727,0,0,0,2.734.929c1.41-.146,5.5-.862,9.446-1.557,3.81-.669,7.408-1.3,8.674-1.434a1.189,1.189,0,0,1,.528.068c2.42.911,7.946.275,9.252-1l.384-1.937a1.5,1.5,0,0,0-.454-.666,1.469,1.469,0,0,0-.739-.428l-2.838.533a1.16,1.16,0,0,1-.428-2.28l2.909-.544a3.571,3.571,0,0,1,2.892,1.238,3.042,3.042,0,0,1,.933,2.6l-.442,2.228a1.147,1.147,0,0,1-.2.451c-1.917,2.669-8.854,3-11.807,2.076-1.4.176-4.886.789-8.267,1.382-3.991.7-8.117,1.425-9.608,1.579A5.418,5.418,0,0,1,561.936,835.24Z" transform="translate(-552.618 -805.549)" fill="#f28f55"/>
      </g>
      <g id="Group_401" data-name="Group 401" transform="translate(23.77 61.05)">
        <path id="Path_1193" data-name="Path 1193" d="M574.011,851.423a1.159,1.159,0,0,1-1.159-1.134l-.111-5.149a1.16,1.16,0,0,1,2.32-.049l.111,5.148a1.161,1.161,0,0,1-1.135,1.185Z" transform="translate(-572.741 -843.955)" fill="#f28f55"/>
      </g>
      <g id="Group_402" data-name="Group 402" transform="translate(0 67.27)">
        <path id="Path_1194" data-name="Path 1194" d="M636.72,854.32H543.16a1.16,1.16,0,1,1,0-2.32h93.56a1.16,1.16,0,1,1,0,2.32Z" transform="translate(-542 -852)" fill="#f28f55"/>
      </g>
      <path id="Path_1195" data-name="Path 1195" d="M623.6,793.023l-7.534-2.651H601.658A1.658,1.658,0,0,1,600,788.714v-9.056A1.658,1.658,0,0,1,601.658,778h17.562a1.658,1.658,0,0,1,1.658,1.658v5.407Z" transform="translate(-555.153 -767.948)" fill="#f28f55"/>
      <g id="Group_403" data-name="Group 403" transform="translate(43.301 7.732)">
        <path id="Path_1196" data-name="Path 1196" d="M622.76,792.343a1.164,1.164,0,0,1-.385-.066l-7.346-2.586h-14.21A2.821,2.821,0,0,1,598,786.874v-9.056A2.821,2.821,0,0,1,600.818,775h17.562a2.821,2.821,0,0,1,2.818,2.818v5.215l2.66,7.775a1.16,1.16,0,0,1-1.1,1.536ZM600.818,777.32a.5.5,0,0,0-.5.5v9.056a.5.5,0,0,0,.5.5h14.408a1.145,1.145,0,0,1,.385.066l5.277,1.857L618.94,783.6a1.145,1.145,0,0,1-.063-.375v-5.407a.5.5,0,0,0-.5-.5Z" transform="translate(-598 -775)" fill="#f28f55"/>
      </g>
      <g id="Group_404" data-name="Group 404" transform="translate(28.206 0)">
        <path id="Path_1197" data-name="Path 1197" d="M579.638,782.343a1.16,1.16,0,0,1-1.1-1.536l2.66-7.775v-5.215A2.821,2.821,0,0,1,584.019,765h17.562a2.821,2.821,0,0,1,2.818,2.818v.662a1.16,1.16,0,1,1-2.32,0v-.662a.5.5,0,0,0-.5-.5H584.019a.5.5,0,0,0-.5.5v5.407a1.145,1.145,0,0,1-.063.375l-1.949,5.694,5.277-1.857a1.146,1.146,0,0,1,.385-.066h2.148a1.16,1.16,0,0,1,0,2.32H587.37l-7.346,2.586A1.173,1.173,0,0,1,579.638,782.343Z" transform="translate(-578.479 -765)" fill="#f28f55"/>
      </g>
      <g id="Group_405" data-name="Group 405" transform="translate(16.238 73.456)">
        <path id="Path_1198" data-name="Path 1198" d="M625.245,862.32H564.16a1.16,1.16,0,1,1,0-2.32h61.085a1.16,1.16,0,1,1,0,2.32Z" transform="translate(-563 -860)" fill="#f28f55"/>
      </g>
    </g>
  </g>
</svg>
