<svg xmlns="http://www.w3.org/2000/svg" width="202" height="168" viewBox="0 0 202 168">
  <g id="Group_585" data-name="Group 585" transform="translate(-1100 -1954)">
    <g id="Group_491" data-name="Group 491" transform="translate(1134 1954)">
      <g id="Ellipse_107" data-name="Ellipse 107" fill="none" stroke="#f28f55" stroke-linecap="round" stroke-width="6" stroke-dasharray="0 12">
        <circle cx="84" cy="84" r="84" stroke="none"/>
        <circle cx="84" cy="84" r="81" fill="none"/>
      </g>
    </g>
    <g id="Ellipse_188" data-name="Ellipse 188" transform="translate(1100 1966)" fill="#fff" stroke="#f28f55" stroke-width="1">
      <circle cx="34" cy="34" r="34" stroke="none"/>
      <circle cx="34" cy="34" r="33.5" fill="none"/>
    </g>
    <text id="_4" data-name="4" transform="translate(1133 2013)" fill="#f28f55" font-size="36" font-family="Arial-BoldMT, Arial" font-weight="700" letter-spacing="0.04em"><tspan x="-10.011" y="0">4</tspan></text>
    <g id="Group_498" data-name="Group 498" transform="translate(1173.313 1993.086)">
      <path id="Path_1236" data-name="Path 1236" d="M847.583,814H824v13.918h23.583l-2.4-6.593Z" transform="translate(-770.647 -769.926)" fill="#f28f55"/>
      <path id="Path_1237" data-name="Path 1237" d="M823.022,779H789v20.1h36.342l-4.639-11.6Z" transform="translate(-762.71 -761.988)" fill="#f28f55"/>
      <g id="Group_438" data-name="Group 438" transform="translate(0 83.508)">
        <path id="Path_1238" data-name="Path 1238" d="M832.709,867.32H756.16a1.16,1.16,0,1,1,0-2.32h76.549a1.16,1.16,0,1,1,0,2.32Z" transform="translate(-755 -865)" fill="#f28f55"/>
      </g>
      <g id="Group_439" data-name="Group 439" transform="translate(11.598 76.549)">
        <path id="Path_1239" data-name="Path 1239" d="M792.037,864.505a1.16,1.16,0,0,1-1.16-1.16A4.012,4.012,0,0,0,788,859.479l-3.866-1.16h-5.072l-3.866,1.16a4.012,4.012,0,0,0-2.876,3.866,1.16,1.16,0,0,1-2.32,0,6.316,6.316,0,0,1,4.53-6.088l4.029-1.208a1.154,1.154,0,0,1,.333-.049H784.3a1.158,1.158,0,0,1,.333.049l4.029,1.208a6.317,6.317,0,0,1,4.53,6.088A1.16,1.16,0,0,1,792.037,864.505Z" transform="translate(-770 -856)" fill="#f28f55"/>
      </g>
      <g id="Group_440" data-name="Group 440" transform="translate(19.331 4.64)">
        <path id="Path_1240" data-name="Path 1240" d="M786.572,837.229H781.16a1.16,1.16,0,0,1-1.16-1.16v-69.2a3.866,3.866,0,0,1,7.732,0v3.479a1.16,1.16,0,0,1-2.32,0v-3.479a1.546,1.546,0,0,0-3.093,0v68.043h3.093V799.728a1.16,1.16,0,0,1,2.32,0v36.341A1.16,1.16,0,0,1,786.572,837.229Z" transform="translate(-780 -763)" fill="#f28f55"/>
      </g>
      <g id="Group_441" data-name="Group 441" transform="translate(24.743 10.826)">
        <path id="Path_1241" data-name="Path 1241" d="M824.5,798.063H788.16A1.16,1.16,0,0,1,787,796.9V772.16a1.16,1.16,0,0,1,1.16-1.16H824.5a1.159,1.159,0,0,1,1.093,1.546L821.1,785.279l4.478,11.193a1.16,1.16,0,0,1-1.077,1.591Zm-35.182-2.32h33.468l-4-10.008a1.16,1.16,0,0,1-.016-.817l4.093-11.6H789.32Z" transform="translate(-787 -771)" fill="#f28f55"/>
      </g>
      <g id="Group_442" data-name="Group 442" transform="translate(51.806 40.981)">
        <path id="Path_1242" data-name="Path 1242" d="M823.16,848.661A1.16,1.16,0,0,1,822,847.5V811.16a1.16,1.16,0,1,1,2.32,0V847.5A1.16,1.16,0,0,1,823.16,848.661Z" transform="translate(-822 -810)" fill="#f28f55"/>
      </g>
      <g id="Group_443" data-name="Group 443" transform="translate(52.579 42.528)">
        <path id="Path_1243" data-name="Path 1243" d="M847.357,829.011h-23.2a1.16,1.16,0,0,1,0-2.32h21.588l-1.811-5.432a1.165,1.165,0,0,1-.011-.7l1.872-6.239H824.16a1.16,1.16,0,0,1,0-2.32h23.2a1.159,1.159,0,0,1,1.11,1.493l-2.214,7.381,2.2,6.609a1.16,1.16,0,0,1-1.1,1.527Z" transform="translate(-823 -812)" fill="#f28f55"/>
      </g>
      <g id="Group_444" data-name="Group 444" transform="translate(44.847 78.096)">
        <path id="Path_1244" data-name="Path 1244" d="M828.078,864.959a1.16,1.16,0,0,1-1.16-1.16,3.484,3.484,0,0,0-3.48-3.479H818.8a3.484,3.484,0,0,0-3.48,3.479,1.16,1.16,0,0,1-2.32,0,5.805,5.805,0,0,1,5.8-5.8h4.639a5.805,5.805,0,0,1,5.8,5.8A1.16,1.16,0,0,1,828.078,864.959Z" transform="translate(-813 -858)" fill="#f28f55"/>
      </g>
      <g id="Group_445" data-name="Group 445" transform="translate(2.32 12.451)">
        <path id="Path_1245" data-name="Path 1245" d="M771.483,834.343a1.161,1.161,0,0,1-.817-.337,42.913,42.913,0,0,1-.322-60.558A1.16,1.16,0,1,1,772,775.076a40.593,40.593,0,0,0,.3,57.284,1.16,1.16,0,0,1-.818,1.983Z" transform="translate(-758 -773.102)" fill="#f28f55"/>
      </g>
      <g id="Group_446" data-name="Group 446" transform="translate(28.1 0)">
        <path id="Path_1246" data-name="Path 1246" d="M828.417,837.767a1.16,1.16,0,0,1-.556-2.178c.88-.479,1.75-1,2.585-1.536A1.16,1.16,0,0,1,831.7,836c-.884.569-1.8,1.116-2.733,1.622A1.157,1.157,0,0,1,828.417,837.767Zm6.41-4.3a1.16,1.16,0,0,1-.733-2.059c.772-.629,1.532-1.3,2.259-1.984a1.16,1.16,0,1,1,1.593,1.687c-.769.725-1.571,1.43-2.388,2.1A1.157,1.157,0,0,1,834.827,833.464Zm5.511-5.406a1.159,1.159,0,0,1-.884-1.91c.643-.758,1.268-1.553,1.858-2.363a1.16,1.16,0,0,1,1.876,1.366c-.624.857-1.285,1.7-1.966,2.5A1.153,1.153,0,0,1,840.338,828.058Zm4.428-6.324A1.16,1.16,0,0,1,843.76,820c.495-.869.964-1.765,1.392-2.665a1.16,1.16,0,0,1,2.095,1c-.452.952-.948,1.9-1.472,2.818A1.159,1.159,0,0,1,844.766,821.734Zm3.19-7.034a1.159,1.159,0,0,1-1.1-1.538c.324-.941.618-1.908.873-2.876a1.16,1.16,0,0,1,2.243.591c-.269,1.024-.58,2.047-.924,3.042A1.159,1.159,0,0,1,847.956,814.7Zm1.829-7.5a1.147,1.147,0,0,1-.17-.012,1.16,1.16,0,0,1-.98-1.316c.145-.986.255-1.991.327-2.988a1.16,1.16,0,1,1,2.313.168c-.076,1.052-.193,2.115-.345,3.157A1.16,1.16,0,0,1,849.785,807.195Zm.414-7.708a1.159,1.159,0,0,1-1.158-1.116c-.038-1.005-.113-2.013-.223-3a1.16,1.16,0,0,1,2.306-.257c.116,1.041.195,2.106.235,3.167a1.159,1.159,0,0,1-1.115,1.2Zm-1-7.654a1.159,1.159,0,0,1-1.13-.9c-.219-.969-.478-1.946-.771-2.9a1.16,1.16,0,1,1,2.218-.678c.309,1.013.584,2.046.815,3.071a1.16,1.16,0,0,1-1.132,1.415Zm-2.392-7.337a1.16,1.16,0,0,1-1.066-.7c-.394-.911-.83-1.823-1.294-2.709a1.16,1.16,0,0,1,2.054-1.076c.491.936.952,1.9,1.369,2.865a1.16,1.16,0,0,1-.6,1.525A1.148,1.148,0,0,1,846.809,784.5Zm-3.71-6.766a1.159,1.159,0,0,1-.962-.51c-.556-.823-1.152-1.64-1.773-2.426a1.16,1.16,0,0,1,1.822-1.437c.656.831,1.287,1.695,1.874,2.565a1.159,1.159,0,0,1-.96,1.809Zm-4.891-5.971a1.155,1.155,0,0,1-.826-.346c-.7-.712-1.439-1.406-2.187-2.061a1.16,1.16,0,1,1,1.526-1.746c.792.692,1.57,1.425,2.313,2.179a1.16,1.16,0,0,1-.826,1.974Zm-5.9-4.977a1.156,1.156,0,0,1-.661-.207c-.825-.573-1.676-1.12-2.531-1.626a1.16,1.16,0,0,1,1.182-2c.9.534,1.8,1.113,2.674,1.718a1.16,1.16,0,0,1-.663,2.112Zm-6.718-3.807a1.161,1.161,0,0,1-.475-.1c-.909-.41-1.847-.79-2.787-1.131a1.16,1.16,0,1,1,.792-2.18c.994.36,1.986.763,2.947,1.2a1.16,1.16,0,0,1-.476,2.218Zm-33.084-.491a1.16,1.16,0,0,1-.445-2.232c.976-.4,1.978-.777,2.979-1.107a1.16,1.16,0,1,1,.726,2.2c-.946.312-1.894.663-2.818,1.046A1.139,1.139,0,0,1,792.5,762.484Zm25.776-2.007a1.184,1.184,0,0,1-.273-.032c-.966-.233-1.955-.432-2.944-.593a1.16,1.16,0,1,1,.373-2.29c1.045.17,2.093.382,3.115.628a1.16,1.16,0,0,1-.271,2.287Zm-18.4-.271a1.16,1.16,0,0,1-.236-2.295c1.029-.217,2.083-.4,3.133-.536a1.16,1.16,0,0,1,.3,2.3c-.992.131-1.99.3-2.964.5A1.091,1.091,0,0,1,799.877,760.206Zm10.763-.832-.059,0c-1.01-.051-2.017-.066-3.006-.043a1.174,1.174,0,0,1-1.185-1.134,1.16,1.16,0,0,1,1.134-1.185c1.044-.024,2.109-.008,3.175.046a1.16,1.16,0,0,1-.058,2.318Z" transform="translate(-791.341 -756.999)" fill="#f28f55"/>
      </g>
    </g>
  </g>
</svg>
