<svg id="Group_389" data-name="Group 389" xmlns="http://www.w3.org/2000/svg" width="87.375" height="94.333" viewBox="0 0 87.375 94.333">
  <rect id="Rectangle_782" data-name="Rectangle 782" width="18" height="6" transform="translate(19 87.443)" fill="#a3cce4"/>
  <rect id="Rectangle_783" data-name="Rectangle 783" width="19" height="8" transform="translate(51 80.443)" fill="#a3cce4"/>
  <g id="Group_373" data-name="Group 373" transform="translate(37.888 0)">
    <path id="Path_1164" data-name="Path 1164" d="M395.346,334.516a1.16,1.16,0,0,1-1.16-1.16v-20.1a2.034,2.034,0,0,0-.534-1.443,1.887,1.887,0,0,0-1.389-.49c-1.373,0-1.916.552-1.944,1.956v2.3a1.16,1.16,0,0,1-2.32,0v-2.32A3.959,3.959,0,0,1,392.25,309a4.181,4.181,0,0,1,3.041,1.168,4.3,4.3,0,0,1,1.215,3.085v20.1A1.16,1.16,0,0,1,395.346,334.516Z" transform="translate(-388 -309)" fill="#a3cce4"/>
  </g>
  <g id="Group_374" data-name="Group 374" transform="translate(50.231 12.753)">
    <path id="Path_1165" data-name="Path 1165" d="M410.564,343.669a1.16,1.16,0,0,1-1.16-1.16V329.365a1.632,1.632,0,0,0-.469-1.184,1.686,1.686,0,0,0-1.313-.357c-.115,0-1.189.036-1.344,1.894a1.16,1.16,0,0,1-2.312-.193c.229-2.736,2.006-4,3.561-4.018a3.84,3.84,0,0,1,2.98.968,3.96,3.96,0,0,1,1.216,2.877v13.157A1.16,1.16,0,0,1,410.564,343.669Z" transform="translate(-403.963 -325.493)" fill="#a3cce4"/>
  </g>
  <g id="Group_375" data-name="Group 375" transform="translate(19.121 2.318)">
    <path id="Path_1166" data-name="Path 1166" d="M368.965,351.434a1.161,1.161,0,0,1-1.038-.641L366.38,347.7a1.147,1.147,0,0,1-.093-.258c-.081-.356-2.01-8.727-2.5-11.035a3.908,3.908,0,0,1,2.732-4.2c1.727-.656,4.131-.368,5.71,2.4a1.113,1.113,0,0,1,.084.182c1.245,3.472,2.72,7.371,3.033,7.888.258.446.442.394.53.372a.593.593,0,0,0,.431-.492V317.025c0-2.354,1.319-4.93,4.214-5.025a3.875,3.875,0,0,1,2.9,1.041,5.392,5.392,0,0,1,1.393,3.984v18.557a1.16,1.16,0,0,1-2.32,0V317.025a3.259,3.259,0,0,0-.687-2.317,1.571,1.571,0,0,0-1.208-.39c-1.917.063-1.972,2.436-1.972,2.707v25.516a2.883,2.883,0,0,1-2.133,2.749,2.7,2.7,0,0,1-3.127-1.4c-.488-.728-2.375-5.91-3.2-8.215-1-1.68-2.194-1.536-2.822-1.3-.854.325-1.384,1.086-1.286,1.55.449,2.129,2.2,9.749,2.457,10.858L370,349.755a1.16,1.16,0,0,1-1.037,1.679Z" transform="translate(-363.728 -311.998)" fill="#a3cce4"/>
  </g>
  <g id="Group_376" data-name="Group 376" transform="translate(44.074 3.093)">
    <path id="Path_1167" data-name="Path 1167" d="M403.346,338.516a1.16,1.16,0,0,1-1.16-1.16v-20.1a1.8,1.8,0,0,0-1.942-1.933c-1.154,0-1.906.712-1.925,1.206v1.5a1.16,1.16,0,0,1-2.32,0v-1.546c.077-1.955,1.991-3.465,4.261-3.479a4.109,4.109,0,0,1,4.244,4.24v20.116A1.16,1.16,0,0,1,403.346,338.516Z" transform="translate(-396 -313)" fill="#a3cce4"/>
  </g>
  <g id="Group_377" data-name="Group 377" transform="translate(23.97 42.95)">
    <path id="Path_1168" data-name="Path 1168" d="M376.572,385a1.16,1.16,0,0,1-1.16-1.16V368.413a1.546,1.546,0,0,0-3.093,0v1.51a1.16,1.16,0,0,1-2.32,0v-1.51a3.866,3.866,0,0,1,7.732,0v15.428A1.16,1.16,0,0,1,376.572,385Z" transform="translate(-370 -364.547)" fill="#a3cce4"/>
  </g>
  <g id="Group_378" data-name="Group 378" transform="translate(34.795 52.579)">
    <path id="Path_1169" data-name="Path 1169" d="M385.16,411.795a1.16,1.16,0,0,1-1.16-1.16,8.968,8.968,0,0,1,1.485-4.287,24.09,24.09,0,0,0,3.154-10.969v-14.9a1.16,1.16,0,1,0-2.32,0,1.16,1.16,0,0,1-2.32,0,3.48,3.48,0,0,1,6.959,0v14.9a26.174,26.174,0,0,1-3.48,12.154,7.276,7.276,0,0,0-1.16,3.1A1.16,1.16,0,0,1,385.16,411.795Z" transform="translate(-384 -377)" fill="#a3cce4"/>
  </g>
  <g id="Group_379" data-name="Group 379" transform="translate(8.93 44.62)">
    <path id="Path_1170" data-name="Path 1170" d="M361.2,409.368a1.16,1.16,0,0,1-1.147-1,7.461,7.461,0,0,0-1.77-3.9,17.838,17.838,0,0,0-1.725-1.923,14.473,14.473,0,0,1-4.059-6.061c-.009-.032-.019-.066-.026-.1-.061-.288-1.507-7.063-1.874-8.932a3.453,3.453,0,0,1,2.437-3.672c1.437-.511,3.412-.217,4.644,2.115a1.115,1.115,0,0,1,.075.175c.922,2.774,2.02,5.909,2.261,6.351a1.37,1.37,0,0,0,.084.139.232.232,0,0,0,.079-.153V370.573a3.866,3.866,0,0,1,7.732,0v16.078a1.16,1.16,0,0,1-2.32,0V370.573a1.546,1.546,0,0,0-3.093,0V392.38a2.525,2.525,0,0,1-1.872,2.454,2.308,2.308,0,0,1-2.631-1.284c-.37-.595-1.785-4.781-2.409-6.66-.343-.612-.913-1.236-1.778-.931-.616.218-.985.772-.932,1.039.346,1.764,1.717,8.194,1.854,8.841a12.45,12.45,0,0,0,3.483,5.072,19.767,19.767,0,0,1,1.949,2.188,9.641,9.641,0,0,1,2.19,4.952,1.16,1.16,0,0,1-.994,1.305A1.079,1.079,0,0,1,361.2,409.368Z" transform="translate(-350.549 -366.707)" fill="#a3cce4"/>
  </g>
  <g id="Group_380" data-name="Group 380" transform="translate(29.383 45.62)">
    <path id="Path_1171" data-name="Path 1171" d="M383.572,388.1a1.16,1.16,0,0,1-1.16-1.16V371.866a1.546,1.546,0,0,0-3.093,0v.387a1.16,1.16,0,1,1-2.32,0v-.387a3.866,3.866,0,0,1,7.732,0v15.078A1.16,1.16,0,0,1,383.572,388.1Z" transform="translate(-377 -368)" fill="#a3cce4"/>
  </g>
  <g id="Group_381" data-name="Group 381" transform="translate(56.446 32.125)">
    <path id="Path_1172" data-name="Path 1172" d="M413.16,373.321a1.16,1.16,0,0,1-1.16-1.16V354.413a3.866,3.866,0,0,1,7.732,0v1.51a1.16,1.16,0,0,1-2.32,0v-1.51a1.546,1.546,0,0,0-3.093,0v17.748A1.16,1.16,0,0,1,413.16,373.321Z" transform="translate(-412 -350.547)" fill="#a3cce4"/>
  </g>
  <g id="Group_382" data-name="Group 382" transform="translate(46.394 41.754)">
    <path id="Path_1173" data-name="Path 1173" d="M404.8,401.616a1.16,1.16,0,0,1-1.16-1.16v-1.5a7.278,7.278,0,0,0-1.159-3.1A26.174,26.174,0,0,1,399,383.7v-17.22a3.48,3.48,0,0,1,6.959,0,1.16,1.16,0,1,1-2.32,0,1.16,1.16,0,1,0-2.32,0V383.7a24.234,24.234,0,0,0,3.155,10.97,8.969,8.969,0,0,1,1.485,4.286v1.5A1.16,1.16,0,0,1,404.8,401.616Z" transform="translate(-399 -363)" fill="#a3cce4"/>
  </g>
  <g id="Group_383" data-name="Group 383" transform="translate(61.858 33.795)">
    <path id="Path_1174" data-name="Path 1174" d="M425.586,399.281a1.166,1.166,0,0,1-1.16-1.2,9.974,9.974,0,0,1,2.324-6.665,19.839,19.839,0,0,1,1.949-2.188,12.45,12.45,0,0,0,3.483-5.072c.138-.647,1.509-7.077,1.854-8.841.053-.268-.316-.821-.933-1.039-.864-.307-1.436.319-1.778.931-.625,1.879-2.04,6.066-2.447,6.724a2.276,2.276,0,0,1-2.594,1.219,2.531,2.531,0,0,1-1.872-2.474V356.573a1.546,1.546,0,0,0-3.093,0v18.4a1.16,1.16,0,0,1-2.32,0v-18.4a3.866,3.866,0,0,1,7.732,0V380.7a.25.25,0,0,0,.08.172.772.772,0,0,0,.056-.09c.268-.491,1.366-3.626,2.288-6.4a1.12,1.12,0,0,1,.075-.175c1.23-2.332,3.207-2.624,4.644-2.115a3.453,3.453,0,0,1,2.437,3.672c-.367,1.869-1.812,8.645-1.874,8.932-.007.033-.016.067-.026.1a14.473,14.473,0,0,1-4.059,6.061,17.844,17.844,0,0,0-1.725,1.923,7.714,7.714,0,0,0-1.884,5.378A1.161,1.161,0,0,1,425.586,399.281Z" transform="translate(-419 -352.707)" fill="#a3cce4"/>
  </g>
  <g id="Group_384" data-name="Group 384" transform="translate(51.033 34.795)">
    <path id="Path_1175" data-name="Path 1175" d="M406.16,376.423a1.16,1.16,0,0,1-1.16-1.16v-17.4a3.866,3.866,0,0,1,7.732,0v.387a1.16,1.16,0,1,1-2.32,0v-.387a1.546,1.546,0,0,0-3.093,0v17.4A1.16,1.16,0,0,1,406.16,376.423Z" transform="translate(-405 -354)" fill="#a3cce4"/>
  </g>
  <g id="Group_385" data-name="Group 385" transform="translate(55.16 7.319)">
    <path id="Path_1176" data-name="Path 1176" d="M428.724,391.687a1.16,1.16,0,0,1-.814-1.986,41.377,41.377,0,0,0-16.756-68.968,1.16,1.16,0,1,1,.688-2.215,43.7,43.7,0,0,1,17.7,72.835A1.152,1.152,0,0,1,428.724,391.687Z" transform="translate(-410.337 -318.465)" fill="#a3cce4"/>
  </g>
  <g id="Group_386" data-name="Group 386" transform="translate(0 8.287)">
    <path id="Path_1177" data-name="Path 1177" d="M344.976,381.367a1.161,1.161,0,0,1-1.028-.622A43.722,43.722,0,0,1,366.866,319.8a1.16,1.16,0,0,1,.84,2.163A41.4,41.4,0,0,0,346,379.669a1.16,1.16,0,0,1-1.028,1.7Z" transform="translate(-339 -319.717)" fill="#a3cce4"/>
  </g>
  <g id="Group_387" data-name="Group 387" transform="translate(49.487 78.868)">
    <path id="Path_1178" data-name="Path 1178" d="M423.491,421.052a1.16,1.16,0,0,1-1.16-1.16V413.32H405.32v6.572a1.16,1.16,0,0,1-2.32,0V412.16a1.16,1.16,0,0,1,1.16-1.16h19.331a1.16,1.16,0,0,1,1.16,1.16v7.732A1.16,1.16,0,0,1,423.491,421.052Z" transform="translate(-403 -411)" fill="#a3cce4"/>
  </g>
  <g id="Group_388" data-name="Group 388" transform="translate(17.011 85.827)">
    <path id="Path_1179" data-name="Path 1179" d="M381.491,428.505a1.16,1.16,0,0,1-1.16-1.16V422.32H363.32v5.026a1.16,1.16,0,0,1-2.32,0V421.16a1.16,1.16,0,0,1,1.16-1.16h19.331a1.16,1.16,0,0,1,1.16,1.16v6.186A1.16,1.16,0,0,1,381.491,428.505Z" transform="translate(-361 -420)" fill="#a3cce4"/>
  </g>
</svg>
