<svg xmlns="http://www.w3.org/2000/svg" width="89.201" height="83.451" viewBox="0 0 89.201 83.451">
  <g id="Group_420" data-name="Group 420" opacity="0.996">
    <path id="Path_1200" data-name="Path 1200" d="M834.052,612.32,824,610s3.093,5.413,7.732,5.413C833.279,615.413,834.052,612.32,834.052,612.32Z" transform="translate(-770.647 -556.648)" fill="#a3cce4"/>
    <g id="Group_407" data-name="Group 407" transform="translate(9.279 15.464)">
      <path id="Path_1201" data-name="Path 1201" d="M785.171,580.331H768.16a1.16,1.16,0,0,1-1.16-1.16V562.16a1.16,1.16,0,0,1,1.16-1.16h11.6a1.16,1.16,0,0,1,0,2.32H769.32v14.691h14.691v-5.026a1.16,1.16,0,1,1,2.32,0v6.186A1.16,1.16,0,0,1,785.171,580.331Z" transform="translate(-767 -561)" fill="#a3cce4"/>
    </g>
    <g id="Group_408" data-name="Group 408" transform="translate(14.305 15.702)">
      <path id="Path_1202" data-name="Path 1202" d="M779.418,575.523a1.162,1.162,0,0,1-.905-.435l-4.758-5.948a1.16,1.16,0,1,1,1.811-1.45l3.836,4.794,8.257-10.725a1.16,1.16,0,1,1,1.838,1.415l-9.159,11.9a1.156,1.156,0,0,1-.909.452Z" transform="translate(-773.5 -561.307)" fill="#a3cce4"/>
    </g>
    <g id="Group_409" data-name="Group 409" transform="translate(9.279 43.3)">
      <path id="Path_1203" data-name="Path 1203" d="M785.171,616.33H768.16a1.16,1.16,0,0,1-1.16-1.16V598.16a1.16,1.16,0,0,1,1.16-1.16h11.6a1.16,1.16,0,0,1,0,2.32H769.32v14.691h14.691v-5.026a1.16,1.16,0,0,1,2.32,0v6.186A1.16,1.16,0,0,1,785.171,616.33Z" transform="translate(-767 -597)" fill="#a3cce4"/>
    </g>
    <g id="Group_410" data-name="Group 410" transform="translate(14.305 46.193)">
      <path id="Path_1204" data-name="Path 1204" d="M779.418,612.3a1.162,1.162,0,0,1-.905-.435l-4.758-5.948a1.16,1.16,0,1,1,1.811-1.45l3.836,4.794,6.214-8.07a1.16,1.16,0,0,1,1.838,1.415l-7.115,9.241a1.156,1.156,0,0,1-.909.452Z" transform="translate(-773.5 -600.741)" fill="#a3cce4"/>
    </g>
    <g id="Group_411" data-name="Group 411" transform="translate(33.249 20.877)">
      <path id="Path_1205" data-name="Path 1205" d="M813.078,570.32H799.16a1.16,1.16,0,0,1,0-2.32h13.918a1.16,1.16,0,1,1,0,2.32Z" transform="translate(-798 -568)" fill="#a3cce4"/>
    </g>
    <g id="Group_412" data-name="Group 412" transform="translate(33.249 27.836)">
      <path id="Path_1206" data-name="Path 1206" d="M808.439,579.32H799.16a1.16,1.16,0,0,1,0-2.32h9.279a1.16,1.16,0,1,1,0,2.32Z" transform="translate(-798 -577)" fill="#a3cce4"/>
    </g>
    <path id="Path_1207" data-name="Path 1207" d="M801.264,601.257l1.814-5.825,38.976,10.932-1.325,5.525Z" transform="translate(-765.491 -553.344)" fill="#a3cce4"/>
    <g id="Group_413" data-name="Group 413" transform="translate(29.371 40.581)">
      <path id="Path_1208" data-name="Path 1208" d="M839.038,613.07a1.193,1.193,0,0,1-.309-.041l-40.147-11.057a1.157,1.157,0,0,1-.508-.294l-4.744-4.693a1.16,1.16,0,0,1,.551-1.955l6.5-1.517a1.153,1.153,0,0,1,.571.012L841.1,604.583a1.161,1.161,0,0,1,.808,1.434l-1.755,6.21A1.159,1.159,0,0,1,839.038,613.07ZM799.49,599.816l38.745,10.67,1.124-3.977-38.736-10.67-4.168.973Z" transform="translate(-792.986 -593.483)" fill="#a3cce4"/>
    </g>
    <g id="Group_414" data-name="Group 414" transform="translate(74.197 51.822)">
      <path id="Path_1209" data-name="Path 1209" d="M855.066,616.846a9.123,9.123,0,0,1-3.426-.765,1.16,1.16,0,0,1,.953-2.115c.6.268,2.557.9,3.62.319.169-.093.681-.375.847-1.528a1.542,1.542,0,0,0-.272-1.222,4.238,4.238,0,0,0-2.49-1.2,1.16,1.16,0,0,1,.289-2.3,6.5,6.5,0,0,1,4.042,2.093,3.863,3.863,0,0,1,.727,2.964,4.111,4.111,0,0,1-2.03,3.234A4.665,4.665,0,0,1,855.066,616.846Z" transform="translate(-850.958 -608.021)" fill="#a3cce4"/>
    </g>
    <g id="Group_415" data-name="Group 415" transform="translate(68.515 60.545)">
      <path id="Path_1210" data-name="Path 1210" d="M848.636,642.208a1.158,1.158,0,0,1-.723-.254l-3.868-3.09a1.159,1.159,0,0,1-.163-1.653l14.724-17.5a1.159,1.159,0,0,1,1.6-.171l3.642,2.815a1.16,1.16,0,1,1-1.418,1.835l-2.761-2.134-13.242,15.734,2.938,2.348a1.16,1.16,0,0,1-.725,2.066Z" transform="translate(-843.609 -619.303)" fill="#a3cce4"/>
    </g>
    <g id="Group_416" data-name="Group 416" transform="translate(37.585 36.421)">
      <path id="Path_1211" data-name="Path 1211" d="M840.869,604.786a1.16,1.16,0,0,1-1.03-.625l-3.469-6.67a5.913,5.913,0,0,0-2.939-2.714l-10.288-4.339-15.059.892a1.015,1.015,0,0,1-.138,0,1.6,1.6,0,0,0-1.283.557,2.805,2.805,0,0,0-.736,1.666,1.16,1.16,0,0,1-2.174.808,4.256,4.256,0,0,1,.827-3.582,3.962,3.962,0,0,1,3.43-1.768l15.265-.9a1.138,1.138,0,0,1,.52.09l10.537,4.445a8.241,8.241,0,0,1,4.1,3.779l3.469,6.67a1.16,1.16,0,0,1-1.028,1.7Z" transform="translate(-803.608 -588.103)" fill="#a3cce4"/>
    </g>
    <g id="Group_417" data-name="Group 417" transform="translate(79.19 58.81)">
      <path id="Path_1212" data-name="Path 1212" d="M860.933,622.064a1.158,1.158,0,0,1-.872-.394l-2.358-2.686a1.16,1.16,0,0,1,1.743-1.53l2.358,2.686a1.16,1.16,0,0,1-.871,1.924Z" transform="translate(-857.415 -617.059)" fill="#a3cce4"/>
    </g>
    <g id="Group_418" data-name="Group 418" transform="translate(44.715 50.838)">
      <path id="Path_1213" data-name="Path 1213" d="M838.3,635.026a1.161,1.161,0,0,1-.414-.076l-5.191-1.98a18.439,18.439,0,0,1-7.892-5.747l-6.719-8.431-3.783-3.687a4.87,4.87,0,1,1,6.824-6.949l3.673,3.635,3.242,2.047a1.485,1.485,0,0,0,1.917-.292,1.385,1.385,0,0,0,.19-1.389,1.16,1.16,0,0,1,2.249-.568,3.676,3.676,0,0,1-.67,3.457,3.813,3.813,0,0,1-4.924.752l-3.349-2.114a1.232,1.232,0,0,1-.2-.156l-3.763-3.723a2.574,2.574,0,0,0-1.892-.735,2.52,2.52,0,0,0-1.829.881,2.551,2.551,0,0,0,.148,3.493l3.834,3.738a1.073,1.073,0,0,1,.1.108l6.765,8.487a16.113,16.113,0,0,0,6.9,5.025l5.195,1.982a1.16,1.16,0,0,1-.413,2.243Z" transform="translate(-812.83 -606.749)" fill="#a3cce4"/>
    </g>
    <g id="Group_419" data-name="Group 419" transform="translate(0 0)">
      <path id="Path_1214" data-name="Path 1214" d="M813.379,620.642H756.16a1.16,1.16,0,0,1-1.16-1.16V542.16a1.16,1.16,0,0,1,1.16-1.16h65.724a1.16,1.16,0,0,1,1.16,1.16v35.568a1.16,1.16,0,1,1-2.32,0V543.32h-63.4v75h56.059a1.16,1.16,0,1,1,0,2.32Z" transform="translate(-755 -541)" fill="#a3cce4"/>
    </g>
  </g>
</svg>
