<svg id="Group_437" data-name="Group 437" xmlns="http://www.w3.org/2000/svg" width="84.765" height="82.734" viewBox="0 0 84.765 82.734">
  <rect id="Rectangle_784" data-name="Rectangle 784" width="16.238" height="7.732" transform="translate(12.372 36.341)" fill="#fff"/>
  <rect id="Rectangle_785" data-name="Rectangle 785" width="16.238" height="7.732" transform="translate(12.372 10.052)" fill="#fff"/>
  <path id="Path_1215" data-name="Path 1215" d="M236.02,585.5l-10.007-4.128-2.358,5.719,10.007,4.128a3.093,3.093,0,1,0,2.358-5.718Z" transform="translate(-154.331 -549.382)" fill="#fff"/>
  <path id="Path_1216" data-name="Path 1216" d="M195.538,634.036a20.844,20.844,0,0,1-2.263-.9,7.349,7.349,0,0,1-11.082,0,20.855,20.855,0,0,1-2.264.9c-4.288,1.553-4.929,4.53-4.929,8.931v.889h26.29v-1.065C201.29,638.391,199.827,635.589,195.538,634.036Z" transform="translate(-143.298 -561.122)" fill="#fff"/>
  <g id="Group_421" data-name="Group 421" transform="translate(30.156 67.27)">
    <path id="Path_1217" data-name="Path 1217" d="M174.16,642.464A1.16,1.16,0,0,1,173,641.3v-1.348c0-5.854,3.78-8.029,7.478-9.385,1.932-.708,2.574-1.127,2.574-2.206v-.207a1.16,1.16,0,0,1,2.32,0v.207c0,2.882-2.465,3.786-4.1,4.383-4.342,1.593-5.957,3.546-5.957,7.207V641.3A1.16,1.16,0,0,1,174.16,642.464Z" transform="translate(-173 -627)" fill="#fff"/>
  </g>
  <g id="Group_422" data-name="Group 422" transform="translate(46.513 68.355)">
    <path id="Path_1218" data-name="Path 1218" d="M205.247,642.782a1.16,1.16,0,0,1-1.16-1.16v-1.348c0-3.661-1.615-5.614-5.957-7.207-1.41-.516-3.34-1.224-3.926-3.172a1.16,1.16,0,0,1,2.221-.667c.213.712.977,1.1,2.5,1.662,3.7,1.355,7.478,3.531,7.478,9.385v1.348A1.16,1.16,0,0,1,205.247,642.782Z" transform="translate(-194.155 -628.403)" fill="#fff"/>
  </g>
  <path id="Path_1219" data-name="Path 1219" d="M197.422,612.777a8.092,8.092,0,0,0-8.018-6.515,5.222,5.222,0,0,0-3.72.944c-2.324.472-4.234,3.331-4.722,4.819a5.574,5.574,0,0,0-.072,2.825,1.615,1.615,0,0,0,1.715,1.26l.571-.046c.5-1.781,1.262-3.313,3.043-3.912,3.767,1.284,7.339,2.568,8.6,3.858l.527.273a1.371,1.371,0,0,0,1.976-.932A6.919,6.919,0,0,0,197.422,612.777Z" transform="translate(-144.6 -555.026)" fill="#fff"/>
  <g id="Group_423" data-name="Group 423" transform="translate(37.888 55.12)">
    <path id="Path_1220" data-name="Path 1220" d="M189.818,627.143c-3.152,0-6.818-3.242-6.818-7.424v-3.59c0-2.41,1.366-4.842,4.417-4.842a1.162,1.162,0,0,1,.761.285c2.9,2.525,7.587,2.774,7.633,2.776a1.16,1.16,0,0,1,1.107,1.158v4.316A7.706,7.706,0,0,1,189.818,627.143Zm-2.786-13.51c-1.536.223-1.712,1.792-1.712,2.5v3.59c0,2.961,2.687,5.1,4.5,5.1a5.389,5.389,0,0,0,4.781-5v-3.265A16.09,16.09,0,0,1,187.032,613.633Z" transform="translate(-183 -611.287)" fill="#fff"/>
  </g>
  <path id="Path_1221" data-name="Path 1221" d="M222.935,610.3c0-2.784-2.321-5.76-6.383-6.034a6.686,6.686,0,0,0-4.455,1.514,4.814,4.814,0,0,0-4.287,4.809,22.891,22.891,0,0,1-1.339,8.859,4.885,4.885,0,0,0,4.3,1.323c.688,0,1.349-.75,1.585-1.77-1.513-1.083-1.585-5.8-1.585-5.8s.636-.737,2.4-3.131c1.76,2.155,6.55,3.131,6.55,3.131a8.657,8.657,0,0,1-1.679,6.613s.036.5,1.679.958c2.382.666,4.817-1.323,4.817-1.323C222.907,617.381,222.935,614.352,222.935,610.3Z" transform="translate(-150.434 -554.573)" fill="#fff"/>
  <g id="Group_424" data-name="Group 424" transform="translate(15.694 53.327)">
    <path id="Path_1222" data-name="Path 1222" d="M155.457,617.578a1.16,1.16,0,0,1-1.16-1.16c0-1.926,0-6.437,4.963-7.43a1.159,1.159,0,0,1,.455,2.274c-2.592.519-3.1,2.284-3.1,5.156A1.16,1.16,0,0,1,155.457,617.578Z" transform="translate(-154.297 -608.967)" fill="#fff"/>
  </g>
  <g id="Group_425" data-name="Group 425" transform="translate(19.725 51.906)">
    <path id="Path_1223" data-name="Path 1223" d="M171.254,611.479a8.489,8.489,0,0,1-3.422-.949,13.316,13.316,0,0,0-2.822-.971c-2.494-.483-3.354.758-3.363.771a1.16,1.16,0,0,1-1.959-1.242c.067-.107,1.7-2.59,5.762-1.806a15.335,15.335,0,0,1,3.3,1.12,6.751,6.751,0,0,0,2.5.757,1.16,1.16,0,1,1,0,2.32Z" transform="translate(-159.509 -607.129)" fill="#fff"/>
  </g>
  <g id="Group_426" data-name="Group 426" transform="translate(11.598 68.363)">
    <path id="Path_1224" data-name="Path 1224" d="M150.16,642.785a1.16,1.16,0,0,1-1.16-1.16v-1.007c0-4.454,2.14-7.242,6.939-9.038,1.784-.668,2.34-1.032,2.34-2.007a1.16,1.16,0,1,1,2.32,0c0,2.739-2.314,3.605-3.846,4.178-3.909,1.464-5.433,3.389-5.433,6.867v1.007A1.16,1.16,0,0,1,150.16,642.785Z" transform="translate(-149 -628.413)" fill="#fff"/>
  </g>
  <g id="Group_427" data-name="Group 427" transform="translate(26.29 68.043)">
    <path id="Path_1225" data-name="Path 1225" d="M170.375,633.045a1.154,1.154,0,0,1-.626-.184A3.556,3.556,0,0,1,168,629.714v-.554a1.16,1.16,0,1,1,2.32,0v.554a1.244,1.244,0,0,0,.683,1.2,1.159,1.159,0,0,1-.628,2.135Z" transform="translate(-168 -628)" fill="#fff"/>
  </g>
  <g id="Group_428" data-name="Group 428" transform="translate(18.557 53.704)">
    <path id="Path_1226" data-name="Path 1226" d="M164.192,627.02c-2.863,0-6.192-2.911-6.192-6.663V617.9a5.741,5.741,0,0,1,.452-2.293,4.25,4.25,0,0,1,3.334-2.706,10.778,10.778,0,0,1,2.574.117c3.331.407,4.946.281,5.381-2.581a1.16,1.16,0,1,1,2.293.349,5.467,5.467,0,0,1-1.793,3.58,1.153,1.153,0,0,1,.131.535v5.455C170.372,624.109,167.05,627.02,164.192,627.02Zm-1.733-11.841a2.472,2.472,0,0,0-.356.022c-.25.034-1.008.138-1.522,1.328a3.432,3.432,0,0,0-.261,1.372v2.456a3.892,3.892,0,1,0,7.732,0v-5a12.764,12.764,0,0,1-3.973-.032A14.92,14.92,0,0,0,162.459,615.179Z" transform="translate(-158 -609.455)" fill="#fff"/>
  </g>
  <g id="Group_429" data-name="Group 429" transform="translate(65.821 65.445)">
    <path id="Path_1227" data-name="Path 1227" d="M229.467,641.929a1.16,1.16,0,0,1-1.16-1.16v-5.191c0-4.135-2.805-5.493-5.434-6.442-1.341-.483-3.177-1.145-3.7-3.022a1.16,1.16,0,1,1,2.233-.629c.173.615.9.977,2.258,1.468,2.085.752,6.968,2.513,6.968,8.624v5.191A1.16,1.16,0,0,1,229.467,641.929Z" transform="translate(-219.125 -624.64)" fill="#fff"/>
  </g>
  <g id="Group_430" data-name="Group 430" transform="translate(56.841 64.985)">
    <path id="Path_1228" data-name="Path 1228" d="M208.673,630.146a1.16,1.16,0,0,1-.534-2.19,17.921,17.921,0,0,1,2.193-.928c1.765-.636,2.2-.987,2.2-1.788a1.19,1.19,0,0,1,1.16-1.195,1.131,1.131,0,0,1,1.16,1.125c0,2.7-2.244,3.505-3.729,4.041a15.69,15.69,0,0,0-1.915.8A1.152,1.152,0,0,1,208.673,630.146Z" transform="translate(-207.512 -624.045)" fill="#fff"/>
  </g>
  <g id="Group_431" data-name="Group 431" transform="translate(58.765 53.936)">
    <path id="Path_1229" data-name="Path 1229" d="M216.16,623.518c-3.052,0-6.16-3.531-6.16-6.995v-2.1a1.158,1.158,0,0,1,.495-.95,14.39,14.39,0,0,0,2.963-3.224,1.16,1.16,0,0,1,.92-.495,1.178,1.178,0,0,1,.945.448c1.185,1.522,4.978,2.778,6.214,3.1a1.161,1.161,0,0,1,.868,1.17l-.084,2.078C222.306,620,219.2,623.518,216.16,623.518Zm-3.841-8.535v1.54c0,2.319,2.235,4.675,3.841,4.675S220,618.842,220,616.523v-.047l.049-1.19a18.448,18.448,0,0,1-5.5-2.625A16.979,16.979,0,0,1,212.32,614.983Z" transform="translate(-210 -609.755)" fill="#fff"/>
  </g>
  <g id="Group_432" data-name="Group 432" transform="translate(0 0)">
    <path id="Path_1230" data-name="Path 1230" d="M135.16,622.734a1.16,1.16,0,0,1-1.16-1.16V541.16a1.16,1.16,0,0,1,1.16-1.16h70.364a1.16,1.16,0,0,1,1.16,1.16v7.732a1.16,1.16,0,1,1-2.32,0V542.32H136.32v79.255A1.16,1.16,0,0,1,135.16,622.734Z" transform="translate(-134 -540)" fill="#fff"/>
  </g>
  <g id="Group_433" data-name="Group 433" transform="translate(36.342 10.052)">
    <path id="Path_1231" data-name="Path 1231" d="M199.171,589.341a18.171,18.171,0,1,1,18.171-18.171A18.191,18.191,0,0,1,199.171,589.341Zm0-34.022a15.851,15.851,0,1,0,15.851,15.851A15.869,15.869,0,0,0,199.171,555.32Z" transform="translate(-181 -553)" fill="#fff"/>
  </g>
  <g id="Group_434" data-name="Group 434" transform="translate(68.163 30.828)">
    <path id="Path_1232" data-name="Path 1232" d="M234.495,592.269a4.229,4.229,0,0,1-1.615-.321l-10.008-4.128a1.16,1.16,0,1,1,.885-2.144l10.007,4.128a1.933,1.933,0,0,0,1.475-3.574L225.231,582.1a1.16,1.16,0,0,1,.885-2.145l10.008,4.128a4.253,4.253,0,0,1-1.628,8.184Z" transform="translate(-222.154 -579.87)" fill="#fff"/>
  </g>
  <path id="Path_1233" data-name="Path 1233" d="M211.653,577.4a11.179,11.179,0,1,1-14.4-14.4l4.294,10.826Z" transform="translate(-146.702 -545.216)" fill="#fff"/>
  <g id="Group_435" data-name="Group 435" transform="translate(53.353 16.238)">
    <path id="Path_1234" data-name="Path 1234" d="M214.985,574.145a1.16,1.16,0,0,1-1.16-1.16,9.676,9.676,0,0,0-9.665-9.665,1.16,1.16,0,1,1,0-2.32,12,12,0,0,1,11.985,11.985A1.16,1.16,0,0,1,214.985,574.145Z" transform="translate(-203 -561)" fill="#fff"/>
  </g>
  <g id="Group_436" data-name="Group 436" transform="translate(12.372 23.197)">
    <path id="Path_1235" data-name="Path 1235" d="M165.078,577.732H151.16a1.16,1.16,0,0,1-1.16-1.16V571.16a1.16,1.16,0,0,1,1.16-1.16h13.918a1.16,1.16,0,0,1,1.16,1.16v5.412A1.16,1.16,0,0,1,165.078,577.732Zm-12.758-2.32h11.6V572.32h-11.6Z" transform="translate(-150 -570)" fill="#fff"/>
  </g>
</svg>
