<svg id="icon" data-name="Icon feather-trash-2" xmlns="http://www.w3.org/2000/svg" width="38" height="38" viewBox="0 0 38 38">
  <circle id="Ellipse_245" data-name="Ellipse 245" cx="19" cy="19" r="19" fill="#1f72ae" opacity="0"/>
  <path id="Path_1263" data-name="Path 1263" d="M4.5,9H22.68" transform="translate(5.017 3.591)" fill="none" stroke="currentColor" stroke-linecap="round" stroke-linejoin="round" stroke-width="2"/>
  <path id="Path_1264" data-name="Path 1264" d="M21.64,7.04V21.18a2.02,2.02,0,0,1-2.02,2.02H9.52A2.02,2.02,0,0,1,7.5,21.18V7.04m3.03,0V5.02A2.02,2.02,0,0,1,12.55,3h4.04a2.02,2.02,0,0,1,2.02,2.02V7.04" transform="translate(4.037 5.551)" fill="none" stroke="currentColor" stroke-linecap="round" stroke-linejoin="round" stroke-width="2"/>
  <path id="Path_1265" data-name="Path 1265" d="M15,16.5v6.06" transform="translate(1.587 1.141)" fill="none" stroke="currentColor" stroke-linecap="round" stroke-linejoin="round" stroke-width="2"/>
  <path id="Path_1266" data-name="Path 1266" d="M21,16.5v6.06" transform="translate(-0.373 1.141)" fill="none" stroke="currentColor" stroke-linecap="round" stroke-linejoin="round" stroke-width="2"/>
</svg>
