<svg id="Download" xmlns="http://www.w3.org/2000/svg" width="19.712" height="14.141" viewBox="0 0 19.712 14.141">
  <path id="Path_249" data-name="Path 249" d="M20.055,17h-4.6a.642.642,0,0,0-.526.283l-1.774,2.545h-4.6L6.782,17.283A.642.642,0,0,0,6.257,17h-4.6A.684.684,0,0,0,1,17.707v6.364a.684.684,0,0,0,.657.707h18.4a.684.684,0,0,0,.657-.707V17.707A.684.684,0,0,0,20.055,17ZM19.4,23.364H2.314V18.414H5.928L7.7,20.96a.642.642,0,0,0,.526.283h5.257a.642.642,0,0,0,.526-.283l1.774-2.545H19.4Z" transform="translate(-1 -10.636)" fill="#2f81b7"/>
  <path id="Path_250" data-name="Path 250" d="M14.328,12.278a.707.707,0,0,0,1,0l2.121-2.121a.707.707,0,0,0-1-1l-.914.914V4.707a.707.707,0,0,0-1.414,0v5.364l-.914-.914a.707.707,0,0,0-1,1Z" transform="translate(-4.972 -4)" fill="#2f81b7"/>
</svg>
