<svg id="icon" data-name="Component 99 – 128" xmlns="http://www.w3.org/2000/svg" width="38" height="38" viewBox="0 0 38 38"> 
  <line id="Line_1557" data-name="Line 1557" y2="10.16" transform="translate(18.726 10.092)" fill="none" stroke="currentColor" stroke-linecap="round" stroke-linejoin="round" stroke-width="2"/>
  <path id="Path_1270" data-name="Path 1270" d="M263.4,418.529l-3,3a.7.7,0,0,1-.986,0l-3-3" transform="translate(-241.189 -401.479)" fill="none" stroke="currentColor" stroke-linecap="round" stroke-linejoin="round" stroke-width="2"/>
  <path id="Path_1271" data-name="Path 1271" d="M251.289,420.945h-3.212a1.577,1.577,0,0,0-1.471,1.666v5.168a1.577,1.577,0,0,0,1.471,1.666H267.1a1.577,1.577,0,0,0,1.47-1.666V422.7a1.576,1.576,0,0,0-1.47-1.666h-3.269a1.43,1.43,0,0,0-1.212.723l-1.229,2.028a1.431,1.431,0,0,1-1.212.723H254.96a1.433,1.433,0,0,1-1.224-.741l-1.224-2.078A1.433,1.433,0,0,0,251.289,420.945Z" transform="translate(-238.836 -400.694)" fill="none" stroke="currentColor" stroke-linecap="round" stroke-linejoin="round" stroke-width="2"/>
</svg>
