<svg xmlns="http://www.w3.org/2000/svg" width="166.95" height="163.49" viewBox="0 0 166.95 163.49">
  <g id="Group_371" data-name="Group 371" transform="translate(2.71 3.833)">
    <line id="Line_1524" data-name="Line 1524" x2="97.565" transform="translate(63.964 139.948)" fill="none" stroke="#f28f55" stroke-linecap="round" stroke-miterlimit="10" stroke-width="5.422"/>
    <ellipse id="Ellipse_155" data-name="Ellipse 155" cx="2.705" cy="2.705" rx="2.705" ry="2.705" transform="translate(18.549 145.745)" fill="#bcbcbc"/>
    <ellipse id="Ellipse_146" data-name="Ellipse 146" cx="2.705" cy="2.705" rx="2.705" ry="2.705" transform="translate(71.104 145.745)" fill="#bcbcbc"/>
    <ellipse id="Ellipse_149" data-name="Ellipse 149" cx="2.705" cy="2.705" rx="2.705" ry="2.705" transform="translate(64.148 154.247)" fill="#bcbcbc"/>
    <ellipse id="Ellipse_140" data-name="Ellipse 140" cx="2.705" cy="2.705" rx="2.705" ry="2.705" transform="translate(123.658 145.745)" fill="#bcbcbc"/>
    <ellipse id="Ellipse_138" data-name="Ellipse 138" cx="2.705" cy="2.705" rx="2.705" ry="2.705" transform="translate(116.703 154.247)" fill="#bcbcbc"/>
    <ellipse id="Ellipse_154" data-name="Ellipse 154" cx="2.705" cy="2.705" rx="2.705" ry="2.705" transform="translate(31.687 145.745)" fill="#bcbcbc"/>
    <ellipse id="Ellipse_156" data-name="Ellipse 156" cx="2.705" cy="2.705" rx="2.705" ry="2.705" transform="translate(24.733 154.247)" fill="#bcbcbc"/>
    <ellipse id="Ellipse_147" data-name="Ellipse 147" cx="2.705" cy="2.705" rx="2.705" ry="2.705" transform="translate(84.242 145.745)" fill="#bcbcbc"/>
    <ellipse id="Ellipse_148" data-name="Ellipse 148" cx="2.705" cy="2.705" rx="2.705" ry="2.705" transform="translate(77.286 154.247)" fill="#bcbcbc"/>
    <ellipse id="Ellipse_141" data-name="Ellipse 141" cx="2.705" cy="2.705" rx="2.705" ry="2.705" transform="translate(136.797 145.745)" fill="#bcbcbc"/>
    <ellipse id="Ellipse_139" data-name="Ellipse 139" cx="2.705" cy="2.705" rx="2.705" ry="2.705" transform="translate(129.841 154.247)" fill="#bcbcbc"/>
    <ellipse id="Ellipse_152" data-name="Ellipse 152" cx="2.705" cy="2.705" rx="2.705" ry="2.705" transform="translate(44.827 145.745)" fill="#bcbcbc"/>
    <ellipse id="Ellipse_153" data-name="Ellipse 153" cx="2.705" cy="2.705" rx="2.705" ry="2.705" transform="translate(37.871 154.247)" fill="#bcbcbc"/>
    <ellipse id="Ellipse_142" data-name="Ellipse 142" cx="2.705" cy="2.705" rx="2.705" ry="2.705" transform="translate(97.382 145.745)" fill="#bcbcbc"/>
    <ellipse id="Ellipse_143" data-name="Ellipse 143" cx="2.705" cy="2.705" rx="2.705" ry="2.705" transform="translate(90.426 154.247)" fill="#bcbcbc"/>
    <ellipse id="Ellipse_150" data-name="Ellipse 150" cx="2.705" cy="2.705" rx="2.705" ry="2.705" transform="translate(57.965 145.745)" fill="#bcbcbc"/>
    <ellipse id="Ellipse_151" data-name="Ellipse 151" cx="2.705" cy="2.705" rx="2.705" ry="2.705" transform="translate(51.01 154.247)" fill="#bcbcbc"/>
    <ellipse id="Ellipse_144" data-name="Ellipse 144" cx="2.705" cy="2.705" rx="2.705" ry="2.705" transform="translate(110.52 145.745)" fill="#bcbcbc"/>
    <ellipse id="Ellipse_145" data-name="Ellipse 145" cx="2.705" cy="2.705" rx="2.705" ry="2.705" transform="translate(103.564 154.247)" fill="#bcbcbc"/>
    <line id="Line_1523" data-name="Line 1523" x2="63.375" transform="translate(0.001 139.948)" fill="none" stroke="#263357" stroke-linecap="round" stroke-miterlimit="10" stroke-width="5.422"/>
    <rect id="Rectangle_780" data-name="Rectangle 780" width="91.971" height="68.785" rx="13" transform="translate(36.527 59.896)" fill="#f6f6f6" stroke="#263357" stroke-linecap="round" stroke-miterlimit="10" stroke-width="5.422"/>
    <ellipse id="Ellipse_157" data-name="Ellipse 157" cx="10.047" cy="10.047" rx="10.047" ry="10.047" transform="translate(28.026 49.85)" fill="#1f72ae" stroke="#263357" stroke-linecap="round" stroke-miterlimit="10" stroke-width="5.422"/>
    <ellipse id="Ellipse_158" data-name="Ellipse 158" cx="10.047" cy="10.047" rx="10.047" ry="10.047" transform="translate(72.852 49.85)" fill="#1f72ae" stroke="#263357" stroke-linecap="round" stroke-miterlimit="10" stroke-width="5.422"/>
    <ellipse id="Ellipse_159" data-name="Ellipse 159" cx="10.047" cy="10.047" rx="10.047" ry="10.047" transform="translate(117.678 49.85)" fill="#1f72ae" stroke="#263357" stroke-linecap="round" stroke-miterlimit="10" stroke-width="5.422"/>
    <line id="Line_1525" data-name="Line 1525" y1="47.917" x2="45.599" transform="translate(37.686 0)" fill="none" stroke="#263357" stroke-linecap="round" stroke-miterlimit="10" stroke-width="5.422"/>
    <line id="Line_1526" data-name="Line 1526" x1="44.053" y1="47.917" transform="translate(82.512 0)" fill="none" stroke="#263357" stroke-linecap="round" stroke-miterlimit="10" stroke-width="5.422"/>
    <line id="Line_1527" data-name="Line 1527" y2="48.69" transform="translate(82.512 0)" fill="none" stroke="#263357" stroke-linecap="round" stroke-miterlimit="10" stroke-width="5.422"/>
    <path id="Path_1160" data-name="Path 1160" d="M-17800.047-14861.895l-6.076,14.569h17.078l-11,16.487" transform="translate(17879.469 14942.74)" fill="#fff" stroke="#000" stroke-linecap="round" stroke-miterlimit="10" stroke-width="5.422"/>
  </g>
</svg>
