<svg xmlns="http://www.w3.org/2000/svg" width="163.796" height="86.202" viewBox="0 0 163.796 86.202">
  <g id="Group_372" data-name="Group 372" transform="translate(2.711 2.712)">
    <ellipse id="Ellipse_178" data-name="Ellipse 178" cx="2.705" cy="2.705" rx="2.705" ry="2.705" transform="translate(18.548 69.578)" fill="#bcbcbc"/>
    <ellipse id="Ellipse_165" data-name="Ellipse 165" cx="2.705" cy="2.705" rx="2.705" ry="2.705" transform="translate(71.104 69.578)" fill="#bcbcbc"/>
    <ellipse id="Ellipse_166" data-name="Ellipse 166" cx="2.705" cy="2.705" rx="2.705" ry="2.705" transform="translate(64.147 78.08)" fill="#bcbcbc"/>
    <ellipse id="Ellipse_167" data-name="Ellipse 167" cx="2.705" cy="2.705" rx="2.705" ry="2.705" transform="translate(123.657 69.578)" fill="#bcbcbc"/>
    <ellipse id="Ellipse_160" data-name="Ellipse 160" cx="2.705" cy="2.705" rx="2.705" ry="2.705" transform="translate(116.702 78.08)" fill="#bcbcbc"/>
    <ellipse id="Ellipse_176" data-name="Ellipse 176" cx="2.705" cy="2.705" rx="2.705" ry="2.705" transform="translate(31.686 69.578)" fill="#bcbcbc"/>
    <ellipse id="Ellipse_177" data-name="Ellipse 177" cx="2.705" cy="2.705" rx="2.705" ry="2.705" transform="translate(24.732 78.08)" fill="#bcbcbc"/>
    <ellipse id="Ellipse_168" data-name="Ellipse 168" cx="2.705" cy="2.705" rx="2.705" ry="2.705" transform="translate(84.241 69.578)" fill="#bcbcbc"/>
    <ellipse id="Ellipse_163" data-name="Ellipse 163" cx="2.705" cy="2.705" rx="2.705" ry="2.705" transform="translate(77.285 78.08)" fill="#bcbcbc"/>
    <ellipse id="Ellipse_169" data-name="Ellipse 169" cx="2.705" cy="2.705" rx="2.705" ry="2.705" transform="translate(136.797 69.578)" fill="#bcbcbc"/>
    <ellipse id="Ellipse_161" data-name="Ellipse 161" cx="2.705" cy="2.705" rx="2.705" ry="2.705" transform="translate(129.84 78.08)" fill="#bcbcbc"/>
    <ellipse id="Ellipse_174" data-name="Ellipse 174" cx="2.705" cy="2.705" rx="2.705" ry="2.705" transform="translate(44.826 69.578)" fill="#bcbcbc"/>
    <ellipse id="Ellipse_175" data-name="Ellipse 175" cx="2.705" cy="2.705" rx="2.705" ry="2.705" transform="translate(37.87 78.08)" fill="#bcbcbc"/>
    <ellipse id="Ellipse_170" data-name="Ellipse 170" cx="2.705" cy="2.705" rx="2.705" ry="2.705" transform="translate(97.381 69.578)" fill="#bcbcbc"/>
    <ellipse id="Ellipse_164" data-name="Ellipse 164" cx="2.705" cy="2.705" rx="2.705" ry="2.705" transform="translate(90.425 78.08)" fill="#bcbcbc"/>
    <ellipse id="Ellipse_171" data-name="Ellipse 171" cx="2.705" cy="2.705" rx="2.705" ry="2.705" transform="translate(57.964 69.578)" fill="#bcbcbc"/>
    <ellipse id="Ellipse_172" data-name="Ellipse 172" cx="2.705" cy="2.705" rx="2.705" ry="2.705" transform="translate(51.009 78.08)" fill="#bcbcbc"/>
    <ellipse id="Ellipse_173" data-name="Ellipse 173" cx="2.705" cy="2.705" rx="2.705" ry="2.705" transform="translate(110.519 69.578)" fill="#bcbcbc"/>
    <ellipse id="Ellipse_162" data-name="Ellipse 162" cx="2.705" cy="2.705" rx="2.705" ry="2.705" transform="translate(103.563 78.08)" fill="#bcbcbc"/>
    <line id="Line_1529" data-name="Line 1529" x2="158.373" transform="translate(0 63.781)" fill="none" stroke="#263357" stroke-linecap="round" stroke-miterlimit="10" stroke-width="5.422"/>
    <rect id="Rectangle_781" data-name="Rectangle 781" width="45.599" height="34.006" rx="13" transform="translate(11.143 18.509)" fill="#1f72ae" stroke="#263357" stroke-linecap="round" stroke-miterlimit="10" stroke-width="5.422"/>
    <ellipse id="Ellipse_180" data-name="Ellipse 180" cx="16.617" cy="16.617" rx="16.617" ry="16.617" transform="translate(109.297 27.783)" fill="#f6f6f6" stroke="#263357" stroke-linecap="round" stroke-miterlimit="10" stroke-width="5.422"/>
    <ellipse id="Ellipse_182" data-name="Ellipse 182" cx="1.159" cy="1.159" rx="1.159" ry="1.159" transform="translate(124.754 43.241)" fill="#f6f6f6" stroke="#000" stroke-linecap="round" stroke-miterlimit="10" stroke-width="5.422"/>
    <ellipse id="Ellipse_183" data-name="Ellipse 183" cx="11.593" cy="11.593" rx="11.593" ry="11.593" transform="translate(24.281 37.831)" fill="#f6f6f6" stroke="#263357" stroke-linecap="round" stroke-miterlimit="10" stroke-width="5.422"/>
    <ellipse id="Ellipse_181" data-name="Ellipse 181" cx="1.546" cy="1.546" rx="1.546" ry="1.546" transform="translate(34.329 47.877)" fill="#263357"/>
    <path id="Path_1161" data-name="Path 1161" d="M-17352.74-14869.934c-11.949-.606-19.154,18.172-5.389,27.247s60.186,17.034,60.186,17.034" transform="translate(17423.432 14869.948)" fill="none" stroke="#263357" stroke-linecap="round" stroke-miterlimit="10" stroke-width="5.422"/>
    <path id="Path_1162" data-name="Path 1162" d="M-17364.719-14821.3l35.885.942,7.836-24.425h-12.057" transform="translate(17423.225 14864.23)" fill="none" stroke="#263357" stroke-linecap="round" stroke-miterlimit="10" stroke-width="5.422"/>
    <path id="Path_1163" data-name="Path 1163" d="M-17310.965-14852.329h-15.473" transform="translate(17414.537 14867.491)" fill="#f6f6f6" stroke="#1f72ae" stroke-linecap="round" stroke-miterlimit="10" stroke-width="5.422"/>
  </g>
</svg>
