<svg id="Group_389" data-name="Group 389" xmlns="http://www.w3.org/2000/svg" width="59.875" height="64.643"
  viewBox="0 0 59.875 64.643">
  <rect id="Rectangle_782" data-name="Rectangle 782" width="12.335" height="4.112" transform="translate(13.02 59.922)"
    fill="#2f81b7" />
  <rect id="Rectangle_783" data-name="Rectangle 783" width="13.02" height="5.482" transform="translate(34.949 55.125)"
    fill="#2f81b7" />
  <g id="Group_373" data-name="Group 373" transform="translate(25.963 0)">
    <path id="Path_1164" data-name="Path 1164"
      d="M393.034,326.485a.8.8,0,0,1-.795-.795V311.914a1.394,1.394,0,0,0-.366-.989,1.293,1.293,0,0,0-.952-.336c-.941,0-1.313.378-1.332,1.341V313.5a.795.795,0,0,1-1.59,0v-1.59A2.713,2.713,0,0,1,390.912,309a2.865,2.865,0,0,1,2.084.8,2.949,2.949,0,0,1,.832,2.114v13.776A.8.8,0,0,1,393.034,326.485Z"
      transform="translate(-388 -309)" fill="#2f81b7" />
  </g>
  <g id="Group_374" data-name="Group 374" transform="translate(34.422 8.739)">
    <path id="Path_1165" data-name="Path 1165"
      d="M408.486,337.949a.8.8,0,0,1-.795-.795v-9.008a1.118,1.118,0,0,0-.321-.811,1.156,1.156,0,0,0-.9-.245c-.079,0-.815.025-.921,1.3a.795.795,0,1,1-1.584-.132,2.668,2.668,0,0,1,2.44-2.753,2.632,2.632,0,0,1,2.042.663,2.713,2.713,0,0,1,.833,1.972v9.016A.8.8,0,0,1,408.486,337.949Z"
      transform="translate(-403.963 -325.493)" fill="#2f81b7" />
  </g>
  <g id="Group_375" data-name="Group 375" transform="translate(13.103 1.588)">
    <path id="Path_1166" data-name="Path 1166"
      d="M367.317,339.022a.8.8,0,0,1-.712-.439l-1.06-2.119a.785.785,0,0,1-.064-.177c-.056-.244-1.377-5.98-1.711-7.562a2.678,2.678,0,0,1,1.872-2.876,3.1,3.1,0,0,1,3.913,1.646.762.762,0,0,1,.057.125c.853,2.379,1.864,5.051,2.079,5.406.177.306.3.27.363.255a.406.406,0,0,0,.3-.337v-17.5c0-1.613.9-3.378,2.888-3.444a2.655,2.655,0,0,1,1.986.713,3.7,3.7,0,0,1,.955,2.73V328.16a.795.795,0,0,1-1.59,0V315.443a2.233,2.233,0,0,0-.471-1.588,1.076,1.076,0,0,0-.828-.267c-1.314.043-1.351,1.67-1.351,1.855v17.485a1.975,1.975,0,0,1-1.461,1.884,1.851,1.851,0,0,1-2.143-.959c-.334-.5-1.627-4.05-2.194-5.63-.684-1.151-1.5-1.053-1.934-.89-.586.223-.948.744-.881,1.062.308,1.459,1.509,6.68,1.684,7.441l1.017,2.035a.795.795,0,0,1-.711,1.15Z"
      transform="translate(-363.728 -311.998)" fill="#2f81b7" />
  </g>
  <g id="Group_376" data-name="Group 376" transform="translate(30.202 2.119)">
    <path id="Path_1167" data-name="Path 1167"
      d="M401.034,330.485a.8.8,0,0,1-.795-.795V315.914a1.234,1.234,0,0,0-1.33-1.325c-.791,0-1.306.488-1.319.827v1.028a.795.795,0,0,1-1.59,0v-1.06A2.756,2.756,0,0,1,398.92,313a2.815,2.815,0,0,1,2.908,2.906v13.785A.8.8,0,0,1,401.034,330.485Z"
      transform="translate(-396 -313)" fill="#2f81b7" />
  </g>
  <g id="Group_377" data-name="Group 377" transform="translate(16.426 29.432)">
    <path id="Path_1168" data-name="Path 1168"
      d="M374.5,378.563a.8.8,0,0,1-.795-.795V367.2a1.06,1.06,0,1,0-2.119,0v1.035a.795.795,0,0,1-1.59,0V367.2a2.649,2.649,0,0,1,5.3,0v10.572A.8.8,0,0,1,374.5,378.563Z"
      transform="translate(-370 -364.547)" fill="#2f81b7" />
  </g>
  <g id="Group_378" data-name="Group 378" transform="translate(23.844 36.031)">
    <path id="Path_1169" data-name="Path 1169"
      d="M384.795,400.844a.8.8,0,0,1-.795-.795,6.145,6.145,0,0,1,1.018-2.937,16.508,16.508,0,0,0,2.161-7.517v-10.21a.795.795,0,0,0-1.59,0,.795.795,0,0,1-1.59,0,2.384,2.384,0,0,1,4.769,0v10.21a17.937,17.937,0,0,1-2.384,8.328,4.986,4.986,0,0,0-.795,2.126A.8.8,0,0,1,384.795,400.844Z"
      transform="translate(-384 -377)" fill="#2f81b7" />
  </g>
  <g id="Group_379" data-name="Group 379" transform="translate(6.12 30.577)">
    <path id="Path_1170" data-name="Path 1170"
      d="M357.846,395.941a.8.8,0,0,1-.786-.688,5.113,5.113,0,0,0-1.213-2.675,12.224,12.224,0,0,0-1.182-1.318,9.918,9.918,0,0,1-2.782-4.154c-.006-.022-.013-.046-.017-.068-.042-.2-1.033-4.84-1.284-6.121a2.366,2.366,0,0,1,1.67-2.516,2.535,2.535,0,0,1,3.182,1.449.765.765,0,0,1,.051.12c.632,1.9,1.384,4.049,1.549,4.352a.944.944,0,0,0,.058.1.159.159,0,0,0,.054-.1V369.356a2.649,2.649,0,0,1,5.3,0v11.017a.795.795,0,0,1-1.59,0V369.356a1.06,1.06,0,0,0-2.119,0V384.3a1.73,1.73,0,0,1-1.283,1.682,1.582,1.582,0,0,1-1.8-.88c-.254-.408-1.223-3.276-1.651-4.564-.235-.419-.626-.847-1.219-.638-.422.149-.675.529-.639.712.237,1.209,1.176,5.615,1.271,6.058a8.532,8.532,0,0,0,2.387,3.475,13.545,13.545,0,0,1,1.335,1.5,6.607,6.607,0,0,1,1.5,3.393.8.8,0,0,1-.681.894A.739.739,0,0,1,357.846,395.941Z"
      transform="translate(-350.549 -366.707)" fill="#2f81b7" />
  </g>
  <g id="Group_380" data-name="Group 380" transform="translate(20.135 31.262)">
    <path id="Path_1171" data-name="Path 1171"
      d="M381.5,381.776a.8.8,0,0,1-.795-.795V370.649a1.06,1.06,0,1,0-2.119,0v.265a.795.795,0,0,1-1.59,0v-.265a2.649,2.649,0,0,1,5.3,0v10.332A.8.8,0,0,1,381.5,381.776Z"
      transform="translate(-377 -368)" fill="#2f81b7" />
  </g>
  <g id="Group_381" data-name="Group 381" transform="translate(38.68 22.014)">
    <path id="Path_1172" data-name="Path 1172"
      d="M412.795,366.153a.8.8,0,0,1-.795-.795V353.2a2.649,2.649,0,0,1,5.3,0v1.035a.795.795,0,1,1-1.59,0V353.2a1.06,1.06,0,1,0-2.119,0v12.162A.8.8,0,0,1,412.795,366.153Z"
      transform="translate(-412 -350.547)" fill="#2f81b7" />
  </g>
  <g id="Group_382" data-name="Group 382" transform="translate(31.792 28.613)">
    <path id="Path_1173" data-name="Path 1173"
      d="M402.974,389.462a.8.8,0,0,1-.795-.795v-1.029a4.987,4.987,0,0,0-.794-2.125A17.936,17.936,0,0,1,399,377.184v-11.8a2.384,2.384,0,0,1,4.769,0,.795.795,0,0,1-1.59,0,.795.795,0,0,0-1.59,0v11.8a16.607,16.607,0,0,0,2.162,7.517,6.146,6.146,0,0,1,1.017,2.937v1.029A.8.8,0,0,1,402.974,389.462Z"
      transform="translate(-399 -363)" fill="#2f81b7" />
  </g>
  <g id="Group_383" data-name="Group 383" transform="translate(42.389 23.159)">
    <path id="Path_1174" data-name="Path 1174"
      d="M423.513,384.623a.8.8,0,0,1-.795-.82,6.835,6.835,0,0,1,1.592-4.567,13.586,13.586,0,0,1,1.335-1.5,8.532,8.532,0,0,0,2.387-3.475c.094-.443,1.034-4.85,1.271-6.058.036-.183-.217-.563-.639-.712-.592-.21-.984.219-1.219.638-.428,1.288-1.4,4.157-1.677,4.608a1.56,1.56,0,0,1-1.778.836,1.734,1.734,0,0,1-1.283-1.7v-16.52a1.06,1.06,0,1,0-2.119,0v12.607a.795.795,0,1,1-1.59,0V355.356a2.649,2.649,0,1,1,5.3,0V371.89a.171.171,0,0,0,.055.118.531.531,0,0,0,.039-.062c.183-.336.936-2.484,1.568-4.386a.77.77,0,0,1,.051-.12,2.535,2.535,0,0,1,3.182-1.449,2.366,2.366,0,0,1,1.67,2.516c-.251,1.281-1.242,5.924-1.284,6.121,0,.023-.011.046-.018.068a9.918,9.918,0,0,1-2.782,4.154,12.231,12.231,0,0,0-1.182,1.318,5.286,5.286,0,0,0-1.291,3.685A.8.8,0,0,1,423.513,384.623Z"
      transform="translate(-419 -352.707)" fill="#2f81b7" />
  </g>
  <g id="Group_384" data-name="Group 384" transform="translate(34.971 23.844)">
    <path id="Path_1175" data-name="Path 1175"
      d="M405.795,369.366a.8.8,0,0,1-.795-.795V356.649a2.649,2.649,0,0,1,5.3,0v.265a.795.795,0,1,1-1.59,0v-.265a1.06,1.06,0,1,0-2.119,0v11.922A.8.8,0,0,1,405.795,369.366Z"
      transform="translate(-405 -354)" fill="#2f81b7" />
  </g>
  <g id="Group_385" data-name="Group 385" transform="translate(37.799 5.015)">
    <path id="Path_1176" data-name="Path 1176"
      d="M422.937,368.642a.795.795,0,0,1-.558-1.361A28.355,28.355,0,0,0,410.9,320.02a.795.795,0,1,1,.472-1.518,29.944,29.944,0,0,1,12.127,49.911A.789.789,0,0,1,422.937,368.642Z"
      transform="translate(-410.337 -318.465)" fill="#2f81b7" />
  </g>
  <g id="Group_386" data-name="Group 386" transform="translate(0 5.679)">
    <path id="Path_1177" data-name="Path 1177"
      d="M343.1,361.964a.8.8,0,0,1-.7-.426,29.961,29.961,0,0,1,15.7-41.766.795.795,0,0,1,.575,1.482A28.37,28.37,0,0,0,343.8,360.8a.795.795,0,0,1-.7,1.163Z"
      transform="translate(-339 -319.717)" fill="#2f81b7" />
  </g>
  <g id="Group_387" data-name="Group 387" transform="translate(33.912 54.046)">
    <path id="Path_1178" data-name="Path 1178"
      d="M417.041,417.888a.8.8,0,0,1-.795-.795v-4.5H404.59v4.5a.795.795,0,1,1-1.59,0v-5.3a.8.8,0,0,1,.795-.795h13.247a.8.8,0,0,1,.795.795v5.3A.8.8,0,0,1,417.041,417.888Z"
      transform="translate(-403 -411)" fill="#2f81b7" />
  </g>
  <g id="Group_388" data-name="Group 388" transform="translate(11.657 58.815)">
    <path id="Path_1179" data-name="Path 1179"
      d="M375.041,425.828a.8.8,0,0,1-.795-.795V421.59H362.59v3.444a.795.795,0,0,1-1.59,0v-4.239a.8.8,0,0,1,.795-.795h13.247a.8.8,0,0,1,.795.795v4.239A.8.8,0,0,1,375.041,425.828Z"
      transform="translate(-361 -420)" fill="#2f81b7" />
  </g>
</svg>