<svg id="Group_745" data-name="Group 745" xmlns="http://www.w3.org/2000/svg" width="44.285" height="34.999"
  viewBox="0 0 44.285 34.999">
  <g id="Group_390" data-name="Group 390" transform="translate(33.102 3.695)">
    <path id="Path_1182" data-name="Path 1182"
      d="M638.086,784.384a.539.539,0,0,1-.536-.551l.037-1.276a2.29,2.29,0,0,1-1.62-.361,3.6,3.6,0,0,1-1.256-2.632,14.112,14.112,0,0,1,.3-3.794.536.536,0,0,1,1.047.227,13.06,13.06,0,0,0-.275,3.506,2.461,2.461,0,0,0,.791,1.809,1.57,1.57,0,0,0,1.4.063.535.535,0,0,1,.7.525l-.056,1.964A.535.535,0,0,1,638.086,784.384Z"
      transform="translate(-634.688 -775.347)" fill="#1f72ae" />
  </g>
  <g id="Group_391" data-name="Group 391" transform="translate(32.364 0.497)">
    <path id="Path_1183" data-name="Path 1183"
      d="M641.087,778.949a.536.536,0,0,1-.509-.37,12.465,12.465,0,0,1-.73-3.377,8.53,8.53,0,0,1,.782-2.644c.076-.176.157-.366.246-.579a2.825,2.825,0,0,0-.117-2.519,4.1,4.1,0,0,0-2.865-1.947,5.771,5.771,0,0,0-3.258.693,9.456,9.456,0,0,1-.9.361,2.207,2.207,0,0,0,.515.673c.1.061.222.152.387.275a5.466,5.466,0,0,0,2.434,1.227.542.542,0,0,1,.361.132l.643.559a.536.536,0,0,1-.7.809l-.5-.437A6.591,6.591,0,0,1,634,770.376c-.143-.105-.254-.189-.325-.231a.417.417,0,0,1-.042-.027c-.3-.22-1.137-1.105-.994-1.857a.872.872,0,0,1,.675-.686,6.987,6.987,0,0,0,.893-.349,6.684,6.684,0,0,1,3.874-.766,5.125,5.125,0,0,1,3.617,2.487,3.914,3.914,0,0,1,.167,3.445c-.09.217-.173.411-.251.591a7.5,7.5,0,0,0-.705,2.363,12.759,12.759,0,0,0,.688,2.9.535.535,0,0,1-.343.675A.528.528,0,0,1,641.087,778.949Z"
      transform="translate(-632.623 -766.391)" fill="#1f72ae" />
  </g>
  <g id="Group_392" data-name="Group 392" transform="translate(33.423 11.454)">
    <path id="Path_1184" data-name="Path 1184"
      d="M644.8,817.548a.536.536,0,0,1-.516-.39c-.1-.36-.2-.684-.279-.953a.566.566,0,0,1-.021-.107,35.033,35.033,0,0,1,.24-4.831c.136-1.545.276-3.141.294-4.383.1-6.542-1.117-8.176-3.248-8.737-1.241-.041-4.27,1.309-4.621,3.411a.536.536,0,0,1-1.057-.176c.481-2.888,4.247-4.407,5.8-4.3a.505.505,0,0,1,.1.015c3.086.784,4.2,3.441,4.105,9.8-.019,1.281-.161,2.9-.3,4.461a36.565,36.565,0,0,0-.245,4.588c.08.264.172.576.269.92a.534.534,0,0,1-.516.681Z"
      transform="translate(-635.585 -797.074)" fill="#1f72ae" />
  </g>
  <g id="Group_393" data-name="Group 393" transform="translate(25.203 14.447)">
    <path id="Path_1185" data-name="Path 1185"
      d="M617.876,812.959a.532.532,0,0,1-.355-.135c-.722-.641-1.936-1.985-3.006-3.171-.622-.69-1.16-1.285-1.464-1.588a.537.537,0,0,1-.148-.279l-.323-1.7a.536.536,0,1,1,1.052-.2l.292,1.537c.329.341.823.887,1.384,1.509,1,1.108,2.245,2.486,2.923,3.088a.536.536,0,0,1-.356.936Z"
      transform="translate(-612.571 -805.452)" fill="#1f72ae" />
  </g>
  <g id="Group_394" data-name="Group 394" transform="translate(20.247 13.305)">
    <path id="Path_1186" data-name="Path 1186"
      d="M609,814.68a2.772,2.772,0,0,1-1.96-.775c-.494-.493-1.594-1.815-2.658-3.095-.9-1.077-1.82-2.189-2.25-2.642-1.408-.551-3.519-2.641-3.435-4.086a.531.531,0,0,1,.061-.219l.489-.929a1.406,1.406,0,0,1,1.091-.661,1.637,1.637,0,0,1,1.375.372.5.5,0,0,1,.047.057l.688.949a.536.536,0,0,1-.868.629l-.653-.9a.724.724,0,0,0-.377-.051.627.627,0,0,0-.362.116l-.42.8c.082.855,1.717,2.584,2.831,2.956a.527.527,0,0,1,.21.129c.42.42,1.38,1.575,2.4,2.8,1.048,1.26,2.131,2.564,2.591,3.021a1.71,1.71,0,0,0,1.251.462,2.432,2.432,0,0,0,1.715-.858c.846-.931,1.593-1.67,2.724-2.789.47-.465,1.007-1,1.647-1.636a17.326,17.326,0,0,0,2.375-2.768.536.536,0,0,1,.919.55,17.711,17.711,0,0,1-2.537,2.976c-.641.641-1.179,1.174-1.65,1.64-1.119,1.107-1.858,1.838-2.685,2.747a3.487,3.487,0,0,1-2.482,1.209Z"
      transform="translate(-598.693 -802.254)" fill="#1f72ae" />
  </g>
  <g id="Group_395" data-name="Group 395" transform="translate(32.142 23.208)">
    <path id="Path_1187" data-name="Path 1187"
      d="M632.536,838.562a.536.536,0,0,1-.536-.536v-1.293c0-2.057.4-6.093.419-6.264a.528.528,0,0,1,.586-.48.535.535,0,0,1,.48.586c0,.041-.413,4.153-.413,6.157v1.293A.536.536,0,0,1,632.536,838.562Z"
      transform="translate(-632 -829.986)" fill="#1f72ae" />
  </g>
  <g id="Group_396" data-name="Group 396" transform="translate(7.286 3.695)">
    <path id="Path_1188" data-name="Path 1188"
      d="M562.994,784.383a.536.536,0,0,1-.535-.52L562.4,781.9a.536.536,0,0,1,.7-.525,1.571,1.571,0,0,0,1.4-.063,2.463,2.463,0,0,0,.791-1.809,13.1,13.1,0,0,0-.275-3.507.536.536,0,0,1,1.047-.226,14.126,14.126,0,0,1,.3,3.794,3.6,3.6,0,0,1-1.256,2.632,2.3,2.3,0,0,1-1.62.361l.037,1.276a.535.535,0,0,1-.52.551Z"
      transform="translate(-562.402 -775.347)" fill="#1f72ae" />
  </g>
  <g id="Group_397" data-name="Group 397" transform="translate(2.451 0.497)">
    <path id="Path_1189" data-name="Path 1189"
      d="M549.961,778.949a.529.529,0,0,1-.166-.027.535.535,0,0,1-.343-.675,12.75,12.75,0,0,0,.687-2.9,7.494,7.494,0,0,0-.706-2.366c-.077-.179-.16-.372-.25-.588a3.916,3.916,0,0,1,.166-3.445,5.125,5.125,0,0,1,3.617-2.488,6.68,6.68,0,0,1,3.874.766,6.969,6.969,0,0,0,.892.349.872.872,0,0,1,.675.686c.142.752-.692,1.637-.994,1.857l-.042.027c-.071.042-.182.126-.325.231a6.593,6.593,0,0,1-2.868,1.427l-.5.438a.536.536,0,1,1-.7-.808l.643-.559a.535.535,0,0,1,.351-.132,5.454,5.454,0,0,0,2.444-1.227c.165-.122.289-.213.387-.275a2.2,2.2,0,0,0,.515-.672,9.49,9.49,0,0,1-.9-.361,5.765,5.765,0,0,0-3.258-.693,4.1,4.1,0,0,0-2.865,1.947,2.825,2.825,0,0,0-.117,2.519c.088.211.17.4.245.576a8.522,8.522,0,0,1,.783,2.647,12.466,12.466,0,0,1-.731,3.377A.536.536,0,0,1,549.961,778.949Z"
      transform="translate(-548.864 -766.391)" fill="#1f72ae" />
  </g>
  <g id="Group_398" data-name="Group 398" transform="translate(0.946 11.456)">
    <path id="Path_1190" data-name="Path 1190"
      d="M545.438,817.577a.536.536,0,0,1-.516-.681c.1-.355.194-.676.276-.947a36.375,36.375,0,0,0-.245-4.586c-.137-1.564-.279-3.181-.3-4.463-.094-6.363,1.019-9.021,4.1-9.8a.512.512,0,0,1,.1-.015c.036,0,.074,0,.111,0,1.689,0,4.723,2.427,5.254,4.242a30.379,30.379,0,0,1,1.117,7.632.536.536,0,0,1-1.071,0,29.872,29.872,0,0,0-1.074-7.331c-.416-1.422-3.1-3.473-4.209-3.473-2.142.562-3.354,2.2-3.257,8.737.018,1.243.158,2.84.294,4.385a35.013,35.013,0,0,1,.241,4.83.556.556,0,0,1-.021.107c-.084.275-.182.609-.286.979A.536.536,0,0,1,545.438,817.577Z"
      transform="translate(-544.65 -797.077)" fill="#1f72ae" />
  </g>
  <g id="Group_399" data-name="Group 399" transform="translate(8.553 21.54)">
    <path id="Path_1191" data-name="Path 1191"
      d="M566.484,828.537a.536.536,0,0,1-.024-1.071c.915-.042,3.209-.391,5.051-.672.985-.15,1.85-.282,2.343-.342l1.2-1.011a.536.536,0,1,1,.692.818l-1.319,1.116a.539.539,0,0,1-.29.124c-.421.044-1.366.188-2.459.354-1.868.284-4.193.638-5.164.682Z"
      transform="translate(-565.948 -825.315)" fill="#1f72ae" />
  </g>
  <g id="Group_400" data-name="Group 400" transform="translate(3.792 14.481)">
    <path id="Path_1192" data-name="Path 1192"
      d="M556.922,819.262a2.827,2.827,0,0,1-1.815-.692,3.489,3.489,0,0,1-1.167-2.5,8.777,8.777,0,0,0-.437-2.09,18.783,18.783,0,0,1-.762-3.682,17.059,17.059,0,0,1,.005-4.3.536.536,0,0,1,1.056.182,16.436,16.436,0,0,0,.005,4.01,17.612,17.612,0,0,0,.724,3.491,9.728,9.728,0,0,1,.479,2.332,2.432,2.432,0,0,0,.792,1.746,1.722,1.722,0,0,0,1.263.429c.651-.067,2.538-.4,4.363-.719,1.76-.309,3.421-.6,4.006-.662a.55.55,0,0,1,.244.031c1.118.421,3.67.127,4.273-.463l.177-.895a.691.691,0,0,0-.21-.308.678.678,0,0,0-.341-.2l-1.311.246a.536.536,0,1,1-.2-1.053l1.344-.251a1.649,1.649,0,0,1,1.336.572,1.4,1.4,0,0,1,.431,1.2l-.2,1.029a.529.529,0,0,1-.09.208c-.885,1.233-4.09,1.385-5.453.959-.645.081-2.257.364-3.818.638-1.843.324-3.749.658-4.438.729A2.5,2.5,0,0,1,556.922,819.262Z"
      transform="translate(-552.618 -805.549)" fill="#1f72ae" />
  </g>
  <g id="Group_401" data-name="Group 401" transform="translate(10.979 28.197)">
    <path id="Path_1193" data-name="Path 1193"
      d="M573.328,847.4a.535.535,0,0,1-.535-.524l-.051-2.378a.536.536,0,0,1,1.071-.023l.051,2.378a.536.536,0,0,1-.524.547Z"
      transform="translate(-572.741 -843.955)" fill="#1f72ae" />
  </g>
  <g id="Group_402" data-name="Group 402" transform="translate(0 31.07)">
    <path id="Path_1194" data-name="Path 1194"
      d="M585.749,853.071H542.536a.536.536,0,0,1,0-1.071h43.213a.536.536,0,0,1,0,1.071Z"
      transform="translate(-542 -852)" fill="#1f72ae" />
  </g>
  <path id="Path_1195" data-name="Path 1195"
    d="M610.9,784.939l-3.48-1.225h-6.655a.766.766,0,0,1-.766-.766v-4.183a.766.766,0,0,1,.766-.766h8.111a.766.766,0,0,1,.766.766v2.5Z"
    transform="translate(-579.286 -773.357)" fill="#1f72ae" />
  <g id="Group_403" data-name="Group 403" transform="translate(20 3.571)">
    <path id="Path_1196" data-name="Path 1196"
      d="M609.436,783.01a.537.537,0,0,1-.178-.03l-3.393-1.194H599.3a1.3,1.3,0,0,1-1.3-1.3V776.3a1.3,1.3,0,0,1,1.3-1.3h8.111a1.3,1.3,0,0,1,1.3,1.3v2.409l1.229,3.591a.536.536,0,0,1-.507.709ZM599.3,776.071a.23.23,0,0,0-.23.23v4.183a.23.23,0,0,0,.23.23h6.655a.53.53,0,0,1,.178.03l2.437.857-.9-2.63a.531.531,0,0,1-.029-.173v-2.5a.23.23,0,0,0-.23-.23Z"
      transform="translate(-598 -775)" fill="#1f72ae" />
  </g>
  <g id="Group_404" data-name="Group 404" transform="translate(13.028 0)">
    <path id="Path_1197" data-name="Path 1197"
      d="M579.014,773.01a.536.536,0,0,1-.506-.709l1.229-3.591V766.3a1.3,1.3,0,0,1,1.3-1.3h8.111a1.3,1.3,0,0,1,1.3,1.3v.306a.536.536,0,1,1-1.071,0V766.3a.23.23,0,0,0-.23-.23h-8.111a.23.23,0,0,0-.23.23v2.5a.529.529,0,0,1-.029.173l-.9,2.63,2.438-.857a.528.528,0,0,1,.178-.03h.992a.536.536,0,0,1,0,1.071h-.9l-3.393,1.194A.542.542,0,0,1,579.014,773.01Z"
      transform="translate(-578.479 -765)" fill="#1f72ae" />
  </g>
  <g id="Group_405" data-name="Group 405" transform="translate(7.5 33.927)">
    <path id="Path_1198" data-name="Path 1198"
      d="M591.749,861.072H563.536a.536.536,0,1,1,0-1.071h28.214a.536.536,0,1,1,0,1.071Z"
      transform="translate(-563 -860)" fill="#1f72ae" />
  </g>
</svg>