<svg xmlns="http://www.w3.org/2000/svg" width="51.115" height="25.703" viewBox="0 0 51.115 25.703">
  <g id="Group_827" data-name="Group 827" transform="translate(-685.44 -1276.336)">
    <path id="Path_1272" data-name="Path 1272"
      d="M190.973,633.836a16.209,16.209,0,0,1-1.76-.7,5.715,5.715,0,0,1-8.619,0,16.219,16.219,0,0,1-1.761.7c-3.335,1.208-3.834,3.523-3.834,6.946v.692h20.446v-.828C195.446,637.224,194.308,635.044,190.973,633.836Z"
      transform="translate(526.076 660.564)" fill="#1f72ae" />
    <g id="Group_746" data-name="Group 746" transform="translate(699.873 1290.013)">
      <path id="Path_1217" data-name="Path 1217"
        d="M173.9,639.027a.9.9,0,0,1-.9-.9v-1.048c0-4.553,2.94-6.244,5.816-7.3,1.5-.551,2-.876,2-1.716V627.9a.9.9,0,0,1,1.8,0v.161c0,2.241-1.917,2.944-3.185,3.409-3.377,1.239-4.633,2.758-4.633,5.605v1.048A.9.9,0,0,1,173.9,639.027Z"
        transform="translate(-172.999 -627)" fill="#1f72ae" />
    </g>
    <g id="Group_747" data-name="Group 747" transform="translate(712.596 1290.855)">
      <path id="Path_1218" data-name="Path 1218"
        d="M202.781,639.586a.9.9,0,0,1-.9-.9v-1.048c0-2.847-1.256-4.366-4.633-5.605-1.1-.4-2.6-.952-3.053-2.467a.9.9,0,0,1,1.728-.519c.166.554.759.858,1.947,1.293,2.876,1.054,5.816,2.746,5.816,7.3v1.048A.9.9,0,0,1,202.781,639.586Z"
        transform="translate(-194.156 -628.403)" fill="#1f72ae" />
    </g>
    <path id="Path_1273" data-name="Path 1273"
      d="M193.714,611.328a6.293,6.293,0,0,0-6.235-5.067,4.061,4.061,0,0,0-2.893.734c-1.808.367-3.293,2.591-3.672,3.748a4.335,4.335,0,0,0-.056,2.2,1.256,1.256,0,0,0,1.334.98l.444-.036c.385-1.385.981-2.577,2.366-3.042,2.93,1,5.708,2,6.687,3l.41.212a1.066,1.066,0,0,0,1.537-.725A5.381,5.381,0,0,0,193.714,611.328Z"
      transform="translate(523.787 671.281)" fill="#1f72ae" />
    <g id="Group_748" data-name="Group 748" transform="translate(705.889 1280.563)">
      <path id="Path_1220" data-name="Path 1220"
        d="M188.3,623.618a5.846,5.846,0,0,1-5.3-5.773v-2.792c0-1.874,1.063-3.766,3.435-3.766a.9.9,0,0,1,.592.221c2.258,1.963,5.9,2.157,5.937,2.159a.9.9,0,0,1,.861.9v3.357A5.993,5.993,0,0,1,188.3,623.618Zm-2.167-10.507c-1.195.174-1.331,1.394-1.331,1.941v2.792a4.066,4.066,0,0,0,3.5,3.969,4.191,4.191,0,0,0,3.718-3.89v-2.539A12.514,12.514,0,0,1,186.135,613.111Z"
        transform="translate(-183.001 -611.287)" fill="#1f72ae" />
    </g>
    <path id="Path_1274" data-name="Path 1274"
      d="M219.276,608.959a4.972,4.972,0,0,0-4.964-4.692,5.2,5.2,0,0,0-3.465,1.177,3.744,3.744,0,0,0-3.334,3.74,17.8,17.8,0,0,1-1.042,6.89,3.8,3.8,0,0,0,3.341,1.029c.535,0,1.049-.583,1.233-1.376-1.177-.842-1.233-4.511-1.233-4.511s.495-.573,1.864-2.435c1.369,1.676,5.094,2.435,5.094,2.435a6.732,6.732,0,0,1-1.306,5.143s.028.387,1.306.745c1.852.518,3.746-1.029,3.746-1.029C219.254,614.464,219.276,612.109,219.276,608.959Z"
      transform="translate(513.529 672.078)" fill="#1f72ae" />
    <g id="Group_749" data-name="Group 749" transform="translate(688.627 1279.168)">
      <path id="Path_1222" data-name="Path 1222"
        d="M155.2,615.664a.9.9,0,0,1-.9-.9c0-1.5,0-5.006,3.86-5.778a.9.9,0,0,1,.354,1.768c-2.016.4-2.41,1.776-2.41,4.01A.9.9,0,0,1,155.2,615.664Z"
        transform="translate(-154.298 -608.967)" fill="#1f72ae" />
    </g>
    <g id="Group_750" data-name="Group 750" transform="translate(691.762 1278.063)">
      <path id="Path_1223" data-name="Path 1223"
        d="M168.644,610.512a6.6,6.6,0,0,1-2.661-.738,10.361,10.361,0,0,0-2.194-.755c-1.94-.376-2.609.589-2.615.6a.9.9,0,0,1-1.523-.966c.052-.084,1.319-2.015,4.481-1.4a11.924,11.924,0,0,1,2.57.871,5.25,5.25,0,0,0,1.942.589.9.9,0,1,1,0,1.8Z"
        transform="translate(-159.51 -607.129)" fill="#1f72ae" />
    </g>
    <g id="Group_751" data-name="Group 751" transform="translate(685.439 1290.861)">
      <path id="Path_1224" data-name="Path 1224"
        d="M149.9,639.59a.9.9,0,0,1-.9-.9v-.783c0-3.464,1.665-5.632,5.4-7.029,1.387-.52,1.82-.8,1.82-1.561a.9.9,0,1,1,1.8,0c0,2.13-1.8,2.8-2.991,3.25-3.04,1.139-4.225,2.636-4.225,5.341v.783A.9.9,0,0,1,149.9,639.59Z"
        transform="translate(-148.999 -628.413)" fill="#1f72ae" />
    </g>
    <g id="Group_752" data-name="Group 752" transform="translate(696.865 1290.613)">
      <path id="Path_1225" data-name="Path 1225"
        d="M169.847,631.924a.9.9,0,0,1-.487-.143,2.766,2.766,0,0,1-1.36-2.448V628.9a.9.9,0,0,1,1.8,0v.431a.967.967,0,0,0,.531.93.9.9,0,0,1-.488,1.66Z"
        transform="translate(-167.999 -628)" fill="#1f72ae" />
    </g>
    <g id="Group_753" data-name="Group 753" transform="translate(690.854 1279.462)">
      <path id="Path_1226" data-name="Path 1226"
        d="M162.816,623.116A5.275,5.275,0,0,1,158,617.934v-1.91a4.465,4.465,0,0,1,.351-1.784,3.305,3.305,0,0,1,2.593-2.1,8.385,8.385,0,0,1,2,.091c2.591.316,3.847.219,4.185-2.007a.9.9,0,1,1,1.784.271,4.252,4.252,0,0,1-1.395,2.784.9.9,0,0,1,.1.416v4.242A5.27,5.27,0,0,1,162.816,623.116Zm-1.348-9.209a1.931,1.931,0,0,0-.277.017c-.194.026-.784.108-1.184,1.033a2.67,2.67,0,0,0-.2,1.067v1.91a3.027,3.027,0,1,0,6.014,0v-3.89a9.926,9.926,0,0,1-3.09-.025A11.609,11.609,0,0,0,161.468,613.907Z"
        transform="translate(-158.001 -609.455)" fill="#1f72ae" />
    </g>
    <g id="Group_754" data-name="Group 754" transform="translate(727.609 1288.593)">
      <path id="Path_1227" data-name="Path 1227"
        d="M227.168,638.086a.9.9,0,0,1-.9-.9v-4.037c0-3.216-2.182-4.272-4.226-5.01-1.043-.376-2.471-.891-2.881-2.35a.9.9,0,1,1,1.737-.489c.135.479.7.76,1.756,1.142,1.621.584,5.419,1.954,5.419,6.707v4.037A.9.9,0,0,1,227.168,638.086Z"
        transform="translate(-219.124 -624.64)" fill="#1f72ae" />
    </g>
    <g id="Group_755" data-name="Group 755" transform="translate(720.629 1288.235)">
      <path id="Path_1228" data-name="Path 1228"
        d="M208.415,628.79a.9.9,0,0,1-.415-1.7,13.942,13.942,0,0,1,1.705-.722c1.373-.495,1.708-.768,1.708-1.391a.926.926,0,0,1,.9-.929.88.88,0,0,1,.9.875c0,2.1-1.745,2.726-2.9,3.143a12.2,12.2,0,0,0-1.49.626A.9.9,0,0,1,208.415,628.79Z"
        transform="translate(-207.513 -624.045)" fill="#1f72ae" />
    </g>
    <g id="Group_756" data-name="Group 756" transform="translate(722.123 1279.642)">
      <path id="Path_1229" data-name="Path 1229"
        d="M214.791,620.458c-2.374,0-4.791-2.746-4.791-5.44v-1.633a.9.9,0,0,1,.385-.738,11.191,11.191,0,0,0,2.3-2.507.9.9,0,0,1,.716-.385.916.916,0,0,1,.735.348c.921,1.184,3.872,2.161,4.833,2.409a.9.9,0,0,1,.675.91l-.066,1.616C219.571,617.726,217.159,620.458,214.791,620.458Zm-2.987-6.638v1.2c0,1.8,1.738,3.636,2.987,3.636s2.988-1.832,2.988-3.636v-.037l.038-.925a14.348,14.348,0,0,1-4.28-2.042A13.2,13.2,0,0,1,211.8,613.821Z"
        transform="translate(-209.999 -609.755)" fill="#1f72ae" />
    </g>
  </g>
</svg>