<svg id="Group_420" data-name="Group 420" xmlns="http://www.w3.org/2000/svg" width="56.163" height="52.542"
  viewBox="0 0 56.163 52.542">
  <path id="Path_1200" data-name="Path 1200"
    d="M830.329,611.46,824,610s1.947,3.408,4.868,3.408C829.842,613.408,830.329,611.46,830.329,611.46Z"
    transform="translate(-790.408 -576.408)" fill="#1f72ae" />
  <g id="Group_407" data-name="Group 407" transform="translate(5.842 9.737)">
    <path id="Path_1201" data-name="Path 1201"
      d="M778.441,573.171H767.73a.731.731,0,0,1-.73-.73V561.73a.731.731,0,0,1,.73-.73h7.3a.73.73,0,0,1,0,1.461H768.46v9.25h9.25v-3.164a.73.73,0,1,1,1.461,0v3.895A.731.731,0,0,1,778.441,573.171Z"
      transform="translate(-767 -561)" fill="#1f72ae" />
  </g>
  <g id="Group_408" data-name="Group 408" transform="translate(9.006 9.886)">
    <path id="Path_1202" data-name="Path 1202"
      d="M777.226,570.258a.732.732,0,0,1-.57-.274l-3-3.745a.73.73,0,1,1,1.14-.913l2.415,3.018,5.2-6.752a.73.73,0,1,1,1.157.891l-5.767,7.49a.728.728,0,0,1-.572.285Z"
      transform="translate(-773.5 -561.307)" fill="#1f72ae" />
  </g>
  <g id="Group_409" data-name="Group 409" transform="translate(5.842 27.263)">
    <path id="Path_1203" data-name="Path 1203"
      d="M778.441,609.171H767.73a.731.731,0,0,1-.73-.73V597.73a.731.731,0,0,1,.73-.73h7.3a.73.73,0,0,1,0,1.46H768.46v9.25h9.25v-3.164a.73.73,0,0,1,1.461,0v3.895A.731.731,0,0,1,778.441,609.171Z"
      transform="translate(-767 -597)" fill="#1f72ae" />
  </g>
  <g id="Group_410" data-name="Group 410" transform="translate(9.006 29.084)">
    <path id="Path_1204" data-name="Path 1204"
      d="M777.226,608.02a.732.732,0,0,1-.57-.274l-3-3.745a.73.73,0,1,1,1.14-.913l2.415,3.018,3.912-5.081a.73.73,0,0,1,1.157.891l-4.48,5.818a.728.728,0,0,1-.572.285Z"
      transform="translate(-773.5 -600.741)" fill="#1f72ae" />
  </g>
  <g id="Group_411" data-name="Group 411" transform="translate(20.934 13.145)">
    <path id="Path_1205" data-name="Path 1205"
      d="M807.493,569.461H798.73a.73.73,0,0,1,0-1.461h8.763a.73.73,0,1,1,0,1.461Z" transform="translate(-798 -568)"
      fill="#1f72ae" />
  </g>
  <g id="Group_412" data-name="Group 412" transform="translate(20.934 17.526)">
    <path id="Path_1206" data-name="Path 1206"
      d="M804.572,578.461H798.73a.73.73,0,0,1,0-1.461h5.842a.73.73,0,1,1,0,1.461Z" transform="translate(-798 -577)"
      fill="#1f72ae" />
  </g>
  <path id="Path_1207" data-name="Path 1207" d="M801.264,599.1l1.142-3.668,24.54,6.883-.834,3.479Z"
    transform="translate(-778.741 -568.932)" fill="#1f72ae" />
  <g id="Group_413" data-name="Group 413" transform="translate(18.493 25.55)">
    <path id="Path_1208" data-name="Path 1208"
      d="M821.981,605.815a.75.75,0,0,1-.195-.026l-25.277-6.962a.728.728,0,0,1-.32-.185l-2.987-2.955a.731.731,0,0,1,.347-1.231l4.093-.955a.725.725,0,0,1,.36.007l25.277,6.963a.731.731,0,0,1,.509.9l-1.105,3.91A.73.73,0,0,1,821.981,605.815Zm-24.9-8.345,24.395,6.718.707-2.5-24.389-6.718-2.625.612Z"
      transform="translate(-792.986 -593.483)" fill="#1f72ae" />
  </g>
  <g id="Group_414" data-name="Group 414" transform="translate(46.716 32.628)">
    <path id="Path_1209" data-name="Path 1209"
      d="M853.544,613.578a5.744,5.744,0,0,1-2.157-.482.73.73,0,0,1,.6-1.332,3.2,3.2,0,0,0,2.279.2c.106-.058.429-.236.534-.962a.972.972,0,0,0-.171-.769,2.668,2.668,0,0,0-1.568-.757.73.73,0,0,1,.182-1.449,4.094,4.094,0,0,1,2.545,1.318,2.432,2.432,0,0,1,.458,1.866,2.588,2.588,0,0,1-1.278,2.036A2.937,2.937,0,0,1,853.544,613.578Z"
      transform="translate(-850.958 -608.021)" fill="#1f72ae" />
  </g>
  <g id="Group_415" data-name="Group 415" transform="translate(43.138 38.121)">
    <path id="Path_1210" data-name="Path 1210"
      d="M846.774,633.724a.729.729,0,0,1-.455-.16l-2.435-1.945a.73.73,0,0,1-.1-1.041l9.27-11.016a.73.73,0,0,1,1-.108l2.293,1.772a.73.73,0,1,1-.893,1.155l-1.738-1.344-8.337,9.907,1.85,1.478a.73.73,0,0,1-.457,1.3Z"
      transform="translate(-843.609 -619.303)" fill="#1f72ae" />
  </g>
  <g id="Group_416" data-name="Group 416" transform="translate(23.664 22.932)">
    <path id="Path_1211" data-name="Path 1211"
      d="M827.068,598.607a.73.73,0,0,1-.648-.393l-2.184-4.2a3.723,3.723,0,0,0-1.85-1.709l-6.477-2.732-9.481.561a.642.642,0,0,1-.087,0,1.01,1.01,0,0,0-.808.35,1.767,1.767,0,0,0-.463,1.049.73.73,0,0,1-1.368.509,2.679,2.679,0,0,1,.52-2.256,2.5,2.5,0,0,1,2.16-1.113l9.611-.57a.717.717,0,0,1,.327.057l6.634,2.8a5.189,5.189,0,0,1,2.579,2.38l2.184,4.2a.73.73,0,0,1-.647,1.068Z"
      transform="translate(-803.608 -588.103)" fill="#1f72ae" />
  </g>
  <g id="Group_417" data-name="Group 417" transform="translate(49.86 37.028)">
    <path id="Path_1212" data-name="Path 1212"
      d="M859.63,620.21a.729.729,0,0,1-.549-.248L857.6,618.27a.73.73,0,0,1,1.1-.963L860.178,619a.73.73,0,0,1-.548,1.212Z"
      transform="translate(-857.415 -617.059)" fill="#1f72ae" />
  </g>
  <g id="Group_418" data-name="Group 418" transform="translate(28.154 32.009)">
    <path id="Path_1213" data-name="Path 1213"
      d="M828.863,624.553a.731.731,0,0,1-.26-.048l-3.268-1.247a11.609,11.609,0,0,1-4.969-3.619l-4.231-5.309-2.382-2.321a3.066,3.066,0,1,1,4.3-4.375l2.312,2.289,2.041,1.289a.935.935,0,0,0,1.207-.184.872.872,0,0,0,.12-.874.73.73,0,0,1,1.416-.357,2.315,2.315,0,0,1-.422,2.177,2.4,2.4,0,0,1-3.1.474l-2.109-1.331a.778.778,0,0,1-.123-.1l-2.369-2.344a1.62,1.62,0,0,0-1.191-.463,1.587,1.587,0,0,0-1.151.555,1.606,1.606,0,0,0,.093,2.2l2.414,2.353a.678.678,0,0,1,.061.068l4.259,5.344a10.145,10.145,0,0,0,4.345,3.164l3.271,1.248a.73.73,0,0,1-.26,1.412Z"
      transform="translate(-812.83 -606.749)" fill="#1f72ae" />
  </g>
  <g id="Group_419" data-name="Group 419" transform="translate(0 0)">
    <path id="Path_1214" data-name="Path 1214"
      d="M791.756,591.144H755.73a.731.731,0,0,1-.73-.73V541.73a.731.731,0,0,1,.73-.73h41.381a.731.731,0,0,1,.73.73v22.394a.73.73,0,1,1-1.461,0V542.461H756.461v47.223h35.3a.73.73,0,1,1,0,1.461Z"
      transform="translate(-755 -541)" fill="#1f72ae" />
  </g>
</svg>